<svg width="135" height="40" viewBox="0 0 135 40" fill="none" xmlns="http://www.w3.org/2000/svg">
<path d="M130 0H5C2.23858 0 0 2.23858 0 5V35C0 37.7614 2.23858 40 5 40H130C132.761 40 135 37.7614 135 35V5C135 2.23858 132.761 0 130 0Z" fill="#25303B"/>
<path d="M130 0.8C131.114 0.8 132.182 1.2425 132.97 2.03015C133.758 2.8178 134.2 3.88609 134.2 5V35C134.2 36.1139 133.758 37.1822 132.97 37.9698C132.182 38.7575 131.114 39.2 130 39.2H5C3.88609 39.2 2.8178 38.7575 2.03015 37.9698C1.2425 37.1822 0.8 36.1139 0.8 35V5C0.8 3.88609 1.2425 2.8178 2.03015 2.03015C2.8178 1.2425 3.88609 0.8 5 0.8H130ZM130 0H5C3.67392 0 2.40215 0.526784 1.46447 1.46447C0.526784 2.40215 0 3.67392 0 5V35C0 36.3261 0.526784 37.5979 1.46447 38.5355C2.40215 39.4732 3.67392 40 5 40H130C131.326 40 132.598 39.4732 133.536 38.5355C134.473 37.5979 135 36.3261 135 35V5C135 3.67392 134.473 2.40215 133.536 1.46447C132.598 0.526784 131.326 0 130 0Z" fill="#A6A6A6"/>
<path d="M68.1401 21.7519C67.2976 21.7539 66.4745 22.0056 65.7751 22.4754C65.0756 22.9451 64.5312 23.6117 64.2106 24.3909C63.89 25.17 63.8076 26.0268 63.9739 26.8528C64.1402 27.6787 64.5477 28.4368 65.1449 29.0312C65.7421 29.6256 66.5021 30.0295 67.3288 30.1919C68.1556 30.3544 69.0119 30.268 69.7896 29.9438C70.5672 29.6195 71.2313 29.0719 71.6977 28.3703C72.1642 27.6686 72.4121 26.8444 72.4101 26.0019C72.4183 25.4398 72.3132 24.8819 72.1013 24.3612C71.8893 23.8406 71.5748 23.3679 71.1764 22.9714C70.7779 22.5748 70.3038 22.2625 69.7822 22.053C69.2606 21.8435 68.7021 21.7411 68.1401 21.7519ZM68.1401 28.5819C67.6237 28.618 67.1083 28.4979 66.6611 28.2373C66.2138 27.9766 65.8553 27.5874 65.6321 27.1203C65.409 26.6532 65.3315 26.1298 65.4098 25.618C65.4881 25.1063 65.7185 24.63 66.0711 24.2509C66.4237 23.8719 66.8821 23.6077 67.3869 23.4927C67.8916 23.3776 68.4193 23.4171 68.9013 23.606C69.3833 23.7948 69.7973 24.1243 70.0896 24.5516C70.3819 24.9789 70.5388 25.4842 70.5401 26.0019C70.5562 26.3299 70.5065 26.6578 70.3938 26.9663C70.2812 27.2748 70.1079 27.5576 69.8842 27.7981C69.6606 28.0385 69.391 28.2317 69.0914 28.3664C68.7919 28.501 68.4684 28.5743 68.1401 28.5819ZM58.8201 21.7519C57.9776 21.7539 57.1545 22.0056 56.4551 22.4754C55.7556 22.9451 55.2112 23.6117 54.8906 24.3909C54.57 25.17 54.4876 26.0268 54.6539 26.8528C54.8202 27.6787 55.2277 28.4368 55.8249 29.0312C56.4221 29.6256 57.1821 30.0295 58.0088 30.1919C58.8356 30.3544 59.6919 30.268 60.4696 29.9438C61.2472 29.6195 61.9113 29.0719 62.3777 28.3703C62.8442 27.6686 63.0921 26.8444 63.0901 26.0019C63.0982 25.4398 62.9932 24.8819 62.7813 24.3612C62.5693 23.8406 62.2548 23.3679 61.8564 22.9714C61.4579 22.5748 60.9838 22.2625 60.4622 22.053C59.9406 21.8435 59.3821 21.7411 58.8201 21.7519ZM58.8201 28.5819C58.3037 28.618 57.7883 28.4979 57.3411 28.2373C56.8938 27.9766 56.5353 27.5874 56.3121 27.1203C56.089 26.6532 56.0115 26.1298 56.0898 25.618C56.1681 25.1063 56.3985 24.63 56.7511 24.2509C57.1037 23.8719 57.5621 23.6077 58.0669 23.4927C58.5716 23.3776 59.0993 23.4171 59.5813 23.606C60.0633 23.7948 60.4773 24.1243 60.7696 24.5516C61.0619 24.9789 61.2188 25.4842 61.2201 26.0019C61.2362 26.3299 61.1865 26.6578 61.0738 26.9663C60.9612 27.2748 60.7879 27.5576 60.5642 27.7981C60.3406 28.0385 60.071 28.2317 59.7714 28.3664C59.4719 28.501 59.1484 28.5743 58.8201 28.5819ZM47.7401 23.0619V24.8619H52.0601C51.9924 25.7097 51.6399 26.5097 51.0601 27.1319C50.6268 27.5734 50.1056 27.919 49.5302 28.1464C48.9549 28.3738 48.3382 28.4778 47.7201 28.4519C46.4471 28.4519 45.2262 27.9462 44.326 27.046C43.4258 26.1458 42.9201 24.9249 42.9201 23.6519C42.9201 22.3788 43.4258 21.1579 44.326 20.2578C45.2262 19.3576 46.4471 18.8519 47.7201 18.8519C48.9405 18.8337 50.119 19.2972 51.0001 20.1419L52.2701 18.8719C51.6741 18.2824 50.9664 17.8178 50.1886 17.5052C49.4107 17.1927 48.5783 17.0386 47.7401 17.0519C46.8511 17.0173 45.9643 17.1625 45.1327 17.4788C44.3012 17.7952 43.5421 18.2761 42.9009 18.8929C42.2596 19.5096 41.7495 20.2495 41.4011 21.0681C41.0527 21.8867 40.873 22.7672 40.873 23.6569C40.873 24.5466 41.0527 25.4271 41.4011 26.2457C41.7495 27.0643 42.2596 27.8041 42.9009 28.4209C43.5421 29.0376 44.3012 29.5186 45.1327 29.8349C45.9643 30.1513 46.8511 30.2965 47.7401 30.2619C48.5955 30.296 49.4485 30.1489 50.243 29.83C51.0375 29.5112 51.7556 29.0279 52.3501 28.4119C53.4002 27.2583 53.9598 25.7411 53.9101 24.1819C53.9137 23.8066 53.8836 23.4318 53.8201 23.0619H47.7401ZM93.0501 24.4619C92.7893 23.6946 92.3016 23.0247 91.6516 22.5407C91.0016 22.0568 90.2199 21.7817 89.4101 21.7519C88.8631 21.7508 88.3217 21.8619 87.8193 22.0784C87.317 22.2949 86.8644 22.6121 86.4895 23.0104C86.1146 23.4087 85.8254 23.8797 85.6397 24.3943C85.4541 24.9088 85.3759 25.4559 85.4101 26.0019C85.4016 26.9147 85.6885 27.8059 86.2282 28.5421C86.7679 29.2784 87.5313 29.8204 88.4044 30.087C89.2774 30.3537 90.2134 30.3307 91.0723 30.0216C91.9313 29.7125 92.6672 29.1337 93.1701 28.3719L91.7201 27.3719C91.5039 27.7322 91.1974 28.0297 90.8307 28.2349C90.4641 28.4401 90.0502 28.546 89.6301 28.5419C89.1967 28.5598 88.768 28.4461 88.4003 28.2159C88.0327 27.9857 87.7432 27.6496 87.5701 27.2519L93.2601 24.9019L93.0501 24.4619ZM87.2501 25.8819C87.2298 25.5713 87.2717 25.2597 87.3734 24.9655C87.475 24.6713 87.6343 24.4003 87.842 24.1684C88.0497 23.9365 88.3015 23.7484 88.5828 23.6151C88.8641 23.4817 89.1691 23.4058 89.4801 23.3919C89.8023 23.3722 90.1231 23.4481 90.4024 23.6099C90.6817 23.7718 90.907 24.0125 91.0501 24.3019L87.2501 25.8819ZM82.6301 30.0019H84.5001V17.5019H82.6301V30.0019ZM79.5701 22.7019H79.5001C79.2207 22.3837 78.876 22.1297 78.4894 21.9571C78.1028 21.7845 77.6835 21.6974 77.2601 21.7019C76.1673 21.7549 75.1367 22.2263 74.3821 23.0185C73.6274 23.8106 73.2064 24.8628 73.2064 25.9569C73.2064 27.051 73.6274 28.1031 74.3821 28.8953C75.1367 29.6875 76.1673 30.1589 77.2601 30.2119C77.6841 30.2204 78.1047 30.1352 78.4919 29.9623C78.8791 29.7894 79.2234 29.5332 79.5001 29.2119H79.5701V29.8219C79.5701 31.4519 78.7001 32.3219 77.3001 32.3219C76.8324 32.3116 76.3783 32.1626 75.9955 31.8937C75.6127 31.6249 75.3185 31.2483 75.1501 30.8119L73.5301 31.4819C73.8296 32.2341 74.3504 32.8778 75.0235 33.3277C75.6966 33.7777 76.4905 34.0128 77.3001 34.0019C79.4901 34.0019 81.3001 32.7119 81.3001 29.5719V22.0019H79.5701V22.7019ZM77.4201 28.5819C76.7649 28.541 76.1499 28.252 75.7004 27.7735C75.2509 27.2951 75.0006 26.6633 75.0006 26.0069C75.0006 25.3504 75.2509 24.7186 75.7004 24.2402C76.1499 23.7618 76.7649 23.4727 77.4201 23.4319C77.7403 23.4457 78.0545 23.5238 78.344 23.6615C78.6334 23.7992 78.8922 23.9938 79.1049 24.2336C79.3176 24.4733 79.4799 24.7534 79.5822 25.0572C79.6844 25.361 79.7245 25.6823 79.7001 26.0019C79.7274 26.3226 79.6893 26.6455 79.5883 26.951C79.4872 27.2566 79.3252 27.5385 79.1121 27.7797C78.8989 28.0208 78.6391 28.2163 78.3483 28.3542C78.0575 28.492 77.7417 28.5695 77.4201 28.5819ZM101.81 17.5019H97.3301V30.0019H99.2001V25.2619H101.81C102.343 25.3002 102.878 25.2282 103.382 25.0506C103.886 24.873 104.348 24.5934 104.739 24.2294C105.13 23.8653 105.442 23.4246 105.655 22.9347C105.869 22.4448 105.979 21.9162 105.979 21.3819C105.979 20.8475 105.869 20.319 105.655 19.829C105.442 19.3391 105.13 18.8984 104.739 18.5344C104.348 18.1703 103.886 17.8908 103.382 17.7131C102.878 17.5355 102.343 17.4636 101.81 17.5019ZM101.81 23.5019H99.2001V19.2419H101.85C102.131 19.2419 102.409 19.2972 102.669 19.4048C102.929 19.5123 103.165 19.6699 103.363 19.8687C103.562 20.0674 103.72 20.3033 103.827 20.5629C103.935 20.8226 103.99 21.1008 103.99 21.3819C103.99 21.6629 103.935 21.9412 103.827 22.2008C103.72 22.4605 103.562 22.6964 103.363 22.8951C103.165 23.0938 102.929 23.2514 102.669 23.359C102.409 23.4665 102.131 23.5219 101.85 23.5219L101.81 23.5019ZM113.35 21.7119C112.669 21.6699 111.991 21.8284 111.399 22.1679C110.807 22.5074 110.328 23.0129 110.02 23.6219L111.67 24.3119C111.837 24.0113 112.087 23.7654 112.39 23.6039C112.694 23.4424 113.038 23.3723 113.38 23.4019C113.617 23.3742 113.858 23.394 114.088 23.4602C114.317 23.5264 114.531 23.6377 114.718 23.7876C114.904 23.9375 115.058 24.1229 115.172 24.3331C115.286 24.5433 115.356 24.774 115.38 25.0119V25.1319C114.779 24.8158 114.109 24.651 113.43 24.6519C111.65 24.6519 109.83 25.6519 109.83 27.4719C109.848 27.8587 109.943 28.2381 110.11 28.5874C110.277 28.9368 110.513 29.249 110.803 29.5055C111.093 29.762 111.432 29.9576 111.799 30.0807C112.166 30.2037 112.554 30.2518 112.94 30.2219C113.409 30.2478 113.877 30.1485 114.295 29.9341C114.714 29.7198 115.067 29.398 115.32 29.0019H115.38V30.0019H117.18V25.1919C117.18 23.0019 115.52 21.7319 113.39 21.7319L113.35 21.7119ZM113.12 28.5619C112.51 28.5619 111.66 28.2519 111.66 27.5019C111.66 26.5019 112.72 26.1619 113.66 26.1619C114.254 26.1472 114.841 26.2923 115.36 26.5819C115.297 27.1249 115.04 27.6268 114.635 27.9946C114.231 28.3623 113.707 28.571 113.16 28.5819L113.12 28.5619ZM123.74 22.0019L121.6 27.4219H121.54L119.32 22.0019H117.32L120.65 29.5819L118.75 33.7919H120.7L125.82 22.0019H123.74ZM106.94 30.0019H108.8V17.5019H106.94V30.0019Z" fill="white"/>
<path d="M10.4401 7.53875C10.1106 7.92837 9.94245 8.42921 9.97012 8.93875V31.0588C9.93609 31.5691 10.105 32.0723 10.4401 32.4587L10.5101 32.5388L22.9001 20.1488V19.8488L10.5101 7.46875L10.4401 7.53875Z" fill="url(#paint0_linear)"/>
<path d="M26.9999 24.2787L22.8999 20.1488V19.8488L26.9999 15.7188L27.0899 15.7788L31.9999 18.5588C33.3999 19.3488 33.3999 20.6488 31.9999 21.4488L27.1099 24.2288L26.9999 24.2787Z" fill="url(#paint1_linear)"/>
<path d="M27.1199 24.22L22.8999 20L10.4399 32.46C10.7225 32.7115 11.0842 32.8562 11.4623 32.869C11.8404 32.8818 12.211 32.7619 12.5099 32.53L27.1199 24.22Z" fill="url(#paint2_linear)"/>
<path d="M27.1199 15.7805L12.5099 7.48046C12.213 7.24537 11.8426 7.12251 11.464 7.13349C11.0854 7.14446 10.7228 7.28857 10.4399 7.54046L22.8999 20.0005L27.1199 15.7805Z" fill="url(#paint3_linear)"/>
<path opacity="0.2" d="M26.9999 24.1289L12.5099 32.3789C12.2219 32.5963 11.8708 32.7139 11.5099 32.7139C11.1491 32.7139 10.798 32.5963 10.5099 32.3789L10.4399 32.4489L10.5099 32.5289C10.798 32.7463 11.1491 32.8639 11.5099 32.8639C11.8708 32.8639 12.2219 32.7463 12.5099 32.5289L27.1199 24.2189L26.9999 24.1289Z" fill="#25303B"/>
<path opacity="0.12" d="M10.4399 32.3202C10.1187 31.9235 9.96126 31.4191 9.99988 30.9102V31.0602C9.96585 31.5705 10.1348 32.0737 10.4699 32.4602L10.5399 32.3902L10.4399 32.3202Z" fill="#25303B"/>
<path opacity="0.12" d="M32 21.3L27 24.13L27.09 24.22L32 21.44C32.2898 21.3174 32.5413 21.119 32.7278 20.8656C32.9143 20.6122 33.0291 20.3132 33.06 20C32.9975 20.2846 32.869 20.5505 32.6849 20.7763C32.5007 21.0021 32.2662 21.1815 32 21.3Z" fill="#25303B"/>
<path opacity="0.25" d="M12.51 7.62096L32 18.701C32.2661 18.8195 32.5007 18.9989 32.6848 19.2247C32.869 19.4505 32.9975 19.7164 33.06 20.001C33.0291 19.6878 32.9143 19.3888 32.7278 19.1354C32.5412 18.8819 32.2898 18.6835 32 18.561L12.51 7.48095C11.12 6.68095 9.96997 7.34096 9.96997 8.94096V9.09096C9.99997 7.49096 11.12 6.83096 12.51 7.62096Z" fill="white"/>
<path d="M41.28 12.9996V6.99959H43.11C43.517 6.97992 43.9238 7.04337 44.3055 7.18607C44.6871 7.32877 45.0358 7.54773 45.33 7.82959C45.6057 8.11794 45.8211 8.45838 45.9636 8.83098C46.1061 9.20359 46.1729 9.60087 46.16 9.99959C46.1729 10.3983 46.1061 10.7956 45.9636 11.1682C45.8211 11.5408 45.6057 11.8812 45.33 12.1696C45.0358 12.4515 44.6871 12.6704 44.3055 12.8131C43.9238 12.9558 43.517 13.0193 43.11 12.9996H41.28ZM42.05 12.2596H43.11C43.4137 12.2872 43.7198 12.2478 44.0066 12.144C44.2933 12.0402 44.5537 11.8746 44.7694 11.6589C44.985 11.4433 45.1506 11.1829 45.2544 10.8961C45.3582 10.6094 45.3977 10.3033 45.37 9.99959C45.3959 9.69628 45.3552 9.39098 45.2508 9.10505C45.1463 8.81911 44.9807 8.55943 44.7654 8.34418C44.5502 8.12893 44.2905 7.9633 44.0046 7.85887C43.7186 7.75444 43.4133 7.71373 43.11 7.73959H42.05V12.2596Z" fill="white" stroke="white" stroke-width="0.2" stroke-miterlimit="10"/>
<path d="M47.24 13V7H48V13H47.24Z" fill="white" stroke="white" stroke-width="0.2" stroke-miterlimit="10"/>
<path d="M51.07 13.1294C50.6138 13.122 50.1707 12.9754 49.8 12.7094C49.3858 12.4263 49.0932 11.998 48.98 11.5094L49.68 11.2194C49.7658 11.5449 49.9469 11.8374 50.2 12.0594C50.4388 12.2749 50.7482 12.3958 51.07 12.3994C51.379 12.4097 51.6823 12.3145 51.93 12.1294C52.0447 12.0507 52.1377 11.9444 52.2007 11.8203C52.2636 11.6963 52.2943 11.5584 52.29 11.4194C52.298 11.2699 52.2693 11.1207 52.2066 10.9848C52.1439 10.8488 52.0489 10.7303 51.93 10.6394C51.5877 10.408 51.2092 10.2356 50.81 10.1294C50.36 10.0138 49.9448 9.79077 49.6 9.47936C49.4664 9.34991 49.3611 9.19426 49.2905 9.02218C49.22 8.8501 49.1858 8.66529 49.19 8.47936C49.1902 8.26564 49.2357 8.0544 49.3237 7.8596C49.4116 7.66481 49.5398 7.49089 49.7 7.34936C50.0621 7.06089 50.5074 6.89643 50.9701 6.88023C51.4328 6.86403 51.8885 6.99693 52.27 7.25936C52.558 7.46478 52.7747 7.75492 52.89 8.08936L52.19 8.37936C52.1236 8.17183 51.9943 7.9901 51.82 7.85936C51.6021 7.68545 51.3285 7.59661 51.05 7.60936C50.7757 7.60489 50.508 7.69297 50.29 7.85936C50.1928 7.93072 50.1141 8.02415 50.0602 8.13196C50.0063 8.23976 49.9788 8.35884 49.98 8.47936C49.9786 8.58933 50.0044 8.69795 50.055 8.79561C50.1055 8.89328 50.1794 8.97699 50.27 9.03936C50.5261 9.22876 50.8139 9.37098 51.12 9.45936C51.3718 9.5347 51.6188 9.62486 51.86 9.72936C52.0726 9.82692 52.2738 9.94765 52.46 10.0894C52.6575 10.2307 52.8158 10.4199 52.92 10.6394C53.0324 10.8801 53.0872 11.1437 53.08 11.4094C53.0845 11.6801 53.0227 11.9479 52.9 12.1894C52.79 12.4083 52.6245 12.5945 52.42 12.7294C52.2246 12.8663 52.0085 12.9709 51.78 13.0394C51.549 13.1041 51.3098 13.1344 51.07 13.1294Z" fill="white" stroke="white" stroke-width="0.2" stroke-miterlimit="10"/>
<path d="M55 13.0003H54.23V7.00028H56.23C56.7196 6.99187 57.1932 7.17485 57.55 7.51028C57.7267 7.67234 57.8678 7.86937 57.9643 8.08886C58.0608 8.30835 58.1107 8.5455 58.1107 8.78528C58.1107 9.02505 58.0608 9.26221 57.9643 9.4817C57.8678 9.70119 57.7267 9.89821 57.55 10.0603C57.1932 10.3957 56.7196 10.5787 56.23 10.5703H55V13.0003ZM55 9.83028H56.3C56.4438 9.83548 56.587 9.80959 56.7199 9.75436C56.8528 9.69914 56.9722 9.61588 57.07 9.51028C57.1683 9.41686 57.2466 9.30441 57.3001 9.17977C57.3536 9.05514 57.3812 8.92091 57.3812 8.78528C57.3812 8.64964 57.3536 8.51542 57.3001 8.39078C57.2466 8.26615 57.1683 8.1537 57.07 8.06028C56.9722 7.95467 56.8528 7.87142 56.7199 7.81619C56.587 7.76096 56.4438 7.73507 56.3 7.74028H55V9.83028Z" fill="white" stroke="white" stroke-width="0.2" stroke-miterlimit="10"/>
<path d="M64.0001 12.219C63.7112 12.508 63.3683 12.7374 62.9908 12.8938C62.6133 13.0503 62.2087 13.1308 61.8001 13.1308C61.3914 13.1308 60.9868 13.0503 60.6093 12.8938C60.2318 12.7374 59.8889 12.508 59.6001 12.219C59.0347 11.618 58.72 10.824 58.72 9.99898C58.72 9.17392 59.0347 8.37994 59.6001 7.77898C59.8889 7.48992 60.2318 7.26062 60.6093 7.10416C60.9868 6.94771 61.3914 6.86719 61.8001 6.86719C62.2087 6.86719 62.6133 6.94771 62.9908 7.10416C63.3683 7.26062 63.7112 7.48992 64.0001 7.77898C64.2853 8.07263 64.5092 8.4202 64.6586 8.80138C64.808 9.18256 64.8799 9.5897 64.8701 9.99898C64.8845 10.4088 64.8147 10.8173 64.6651 11.1991C64.5154 11.581 64.2891 11.9281 64.0001 12.219ZM60.1701 11.719C60.3808 11.9378 60.6341 12.1111 60.9145 12.2281C61.1949 12.345 61.4963 12.4032 61.8001 12.399C62.1041 12.405 62.406 12.3477 62.6866 12.2306C62.9673 12.1135 63.2205 11.9393 63.4301 11.719C63.8615 11.2501 64.101 10.6362 64.101 9.99898C64.101 9.36178 63.8615 8.74786 63.4301 8.27898C63.2205 8.05869 62.9673 7.88446 62.6866 7.76738C62.406 7.65031 62.1041 7.59296 61.8001 7.59898C61.4963 7.59477 61.1949 7.65295 60.9145 7.76991C60.6341 7.88688 60.3808 8.06014 60.1701 8.27898C59.7449 8.75099 59.5096 9.36373 59.5096 9.99898C59.5096 10.6342 59.7449 11.247 60.1701 11.719Z" fill="white" stroke="white" stroke-width="0.2" stroke-miterlimit="10"/>
<path d="M66 13V7H66.94L69.85 11.67V10.51V7H70.63V13H69.82L66.82 8.11V9.26V13H66Z" fill="white" stroke="white" stroke-width="0.2" stroke-miterlimit="10"/>
<path d="M72 13V7H72.77V13H72Z" fill="white" stroke="white" stroke-width="0.2" stroke-miterlimit="10"/>
<path d="M74.0901 13.0001V7.00009H76.2601C76.71 6.99558 77.1452 7.15968 77.4801 7.46009C77.6472 7.6051 77.7804 7.78507 77.8702 7.98725C77.9601 8.18943 78.0044 8.40888 78.0001 8.63009C78.0025 8.89947 77.926 9.16366 77.7801 9.39009C77.6325 9.6048 77.4283 9.77441 77.1901 9.88009C77.4788 9.97881 77.7325 10.1595 77.9201 10.4001C78.1039 10.6452 78.2023 10.9438 78.2001 11.2501C78.2052 11.4806 78.1595 11.7094 78.0661 11.9203C77.9728 12.1312 77.8342 12.3189 77.6601 12.4701C77.313 12.7931 76.8541 12.9687 76.3801 12.9601L74.0901 13.0001ZM74.8601 9.57009H76.2601C76.3911 9.57767 76.5221 9.55552 76.6433 9.5053C76.7645 9.45508 76.8728 9.37809 76.9601 9.28009C77.1297 9.11392 77.2267 8.88748 77.2301 8.65009C77.2395 8.41196 77.1572 8.17928 77.0001 8.00009C76.916 7.90683 76.8123 7.83336 76.6965 7.78494C76.5806 7.73653 76.4555 7.71438 76.3301 7.72009H74.8601V9.57009ZM74.8601 12.2601H76.4201C76.5555 12.2646 76.6903 12.2392 76.8148 12.1856C76.9392 12.132 77.0503 12.0516 77.1401 11.9501C77.3128 11.7657 77.4092 11.5227 77.4101 11.2701C77.404 11.0196 77.3041 10.7805 77.1301 10.6001C77.0337 10.4989 76.9171 10.419 76.7879 10.3656C76.6588 10.3122 76.5198 10.2865 76.3801 10.2901H74.8601V12.2601Z" fill="white" stroke="white" stroke-width="0.2" stroke-miterlimit="10"/>
<path d="M79.24 13V7H80V12.26H82.6V13H79.24Z" fill="white" stroke="white" stroke-width="0.2" stroke-miterlimit="10"/>
<path d="M87.0801 7.74H84.3501V9.64H86.8101V10.36H84.3501V12.26H87.0801V13H83.5801V7H87.0801V7.74Z" fill="white" stroke="white" stroke-width="0.2" stroke-miterlimit="10"/>
<path d="M91.7399 13.1294C91.2808 13.1209 90.8348 12.9745 90.4599 12.7094C90.0495 12.4245 89.7606 11.9965 89.6499 11.5094L90.3499 11.2194C90.4357 11.5449 90.6168 11.8374 90.8699 12.0594C91.1088 12.2749 91.4182 12.3958 91.7399 12.3994C92.0487 12.4082 92.3515 12.3131 92.5999 12.1294C92.7146 12.0507 92.8077 11.9444 92.8706 11.8203C92.9335 11.6963 92.9642 11.5584 92.9599 11.4194C92.9679 11.2699 92.9393 11.1207 92.8765 10.9848C92.8138 10.8488 92.7188 10.7303 92.5999 10.6394C92.2539 10.4083 91.8721 10.236 91.4699 10.1294C91.0229 10.0138 90.6109 9.79067 90.2699 9.47936C90.1344 9.35143 90.0277 9.19606 89.957 9.02361C89.8863 8.85116 89.8532 8.66561 89.8599 8.47936C89.8601 8.26564 89.9057 8.0544 89.9936 7.8596C90.0815 7.66481 90.2098 7.49089 90.3699 7.34936C90.7321 7.06089 91.1773 6.89643 91.64 6.88023C92.1028 6.86403 92.5585 6.99693 92.9399 7.25936C93.2279 7.46478 93.4446 7.75492 93.5599 8.08936L92.8599 8.37936C92.794 8.16886 92.6604 7.98604 92.4799 7.85936C92.2665 7.68445 91.9955 7.59532 91.7199 7.60936C91.4457 7.60489 91.1779 7.69297 90.9599 7.85936C90.8615 7.93021 90.7813 8.02329 90.7256 8.13103C90.67 8.23877 90.6407 8.35812 90.6399 8.47936C90.6411 8.58888 90.6679 8.6966 90.7183 8.79387C90.7686 8.89113 90.8411 8.97521 90.9299 9.03936C91.1885 9.22473 91.4756 9.3666 91.7799 9.45936C92.0354 9.5332 92.2859 9.62339 92.5299 9.72936C92.7413 9.82919 92.9423 9.94978 93.1299 10.0894C93.3275 10.2307 93.4858 10.4199 93.5899 10.6394C93.6975 10.8817 93.7521 11.1442 93.7499 11.4094C93.7544 11.6801 93.6926 11.9479 93.5699 12.1894C93.4599 12.4083 93.2944 12.5945 93.0899 12.7294C92.8945 12.8663 92.6784 12.9709 92.4499 13.0394C92.2189 13.1041 91.9797 13.1344 91.7399 13.1294Z" fill="white" stroke="white" stroke-width="0.2" stroke-miterlimit="10"/>
<path d="M96.94 13.13C96.6408 13.1427 96.3423 13.0913 96.0647 12.9792C95.787 12.8671 95.5365 12.6969 95.33 12.48C94.9106 12.0119 94.6916 11.3979 94.72 10.77V7H95.49V10.8C95.4696 11.2186 95.601 11.6305 95.86 11.96C95.9957 12.1094 96.1631 12.2265 96.35 12.3026C96.5369 12.3788 96.7385 12.4121 96.94 12.4C97.1353 12.4162 97.3317 12.3887 97.5151 12.3195C97.6984 12.2503 97.8641 12.1412 98 12C98.2626 11.6719 98.3976 11.2599 98.38 10.84V7H99.15V10.77C99.1801 11.3964 98.9648 12.0098 98.55 12.48C98.3447 12.6985 98.0944 12.8697 97.8164 12.982C97.5384 13.0942 97.2394 13.1447 96.94 13.13Z" fill="white" stroke="white" stroke-width="0.2" stroke-miterlimit="10"/>
<path d="M100.4 13.0003V7.00028H102.4C102.89 6.99187 103.363 7.17485 103.72 7.51028C103.902 7.66923 104.046 7.86639 104.143 8.08766C104.24 8.30893 104.287 8.54885 104.28 8.79028C104.28 9.19728 104.134 9.59086 103.87 9.90028C103.614 10.2081 103.262 10.4197 102.87 10.5003L104.55 13.0003H103.64L102 10.5703H101.15V13.0003H100.4ZM101.17 9.85028H102.41C102.702 9.85621 102.985 9.74868 103.2 9.55028C103.306 9.45454 103.39 9.33716 103.447 9.20606C103.504 9.07496 103.532 8.93318 103.53 8.79028C103.527 8.51936 103.424 8.25911 103.24 8.06028C103.141 7.95336 103.02 7.86933 102.885 7.81406C102.751 7.75879 102.605 7.73361 102.46 7.74028H101.17V9.85028Z" fill="white" stroke="white" stroke-width="0.2" stroke-miterlimit="10"/>
<defs>
<linearGradient id="paint0_linear" x1="21.8001" y1="8.70875" x2="5.02012" y2="25.4888" gradientUnits="userSpaceOnUse">
<stop stop-color="#00A0FF"/>
<stop offset="0.01" stop-color="#00A1FF"/>
<stop offset="0.26" stop-color="#00BEFF"/>
<stop offset="0.51" stop-color="#00D2FF"/>
<stop offset="0.76" stop-color="#00DFFF"/>
<stop offset="1" stop-color="#00E3FF"/>
</linearGradient>
<linearGradient id="paint1_linear" x1="33.8299" y1="19.9987" x2="9.6399" y2="19.9987" gradientUnits="userSpaceOnUse">
<stop stop-color="#FFE000"/>
<stop offset="0.41" stop-color="#FFBD00"/>
<stop offset="0.78" stop-color="#FFA500"/>
<stop offset="1" stop-color="#FF9C00"/>
</linearGradient>
<linearGradient id="paint2_linear" x1="24.8299" y1="22.3" x2="2.06994" y2="45.05" gradientUnits="userSpaceOnUse">
<stop stop-color="#FF3A44"/>
<stop offset="1" stop-color="#C31162"/>
</linearGradient>
<linearGradient id="paint3_linear" x1="7.29994" y1="0.180458" x2="17.4599" y2="10.3405" gradientUnits="userSpaceOnUse">
<stop stop-color="#32A071"/>
<stop offset="0.07" stop-color="#2DA771"/>
<stop offset="0.48" stop-color="#15CF74"/>
<stop offset="0.8" stop-color="#06E775"/>
<stop offset="1" stop-color="#00F076"/>
</linearGradient>
</defs>
</svg>
