<svg width="127" height="40" viewBox="0 0 127 40" fill="none" xmlns="http://www.w3.org/2000/svg">
<g clip-path="url(#clip0)">
<path d="M116.978 0.00013H9.53468C9.16798 0.00013 8.80568 0.00013 8.43995 0.00213C8.1338 0.00413 7.83009 0.00994 7.521 0.01483C6.84951 0.0227318 6.17961 0.0818063 5.5171 0.19154C4.85552 0.303663 4.21467 0.515046 3.61622 0.81854C3.0185 1.1246 2.47235 1.5223 1.99757 1.9972C1.5203 2.47077 1.12246 3.01815 0.81935 3.61829C0.5154 4.21724 0.304641 4.85907 0.19435 5.52161C0.0830109 6.18332 0.0230984 6.85265 0.01515 7.52361C0.00587 7.83021 0.00489 8.13783 0 8.44447V31.5587C0.00489 31.8692 0.00587 32.17 0.01515 32.4806C0.0231008 33.1516 0.0830134 33.8209 0.19435 34.4825C0.304336 35.1455 0.515108 35.7877 0.81935 36.3868C1.12233 36.985 1.52022 37.5302 1.99757 38.0011C2.47054 38.4781 3.01705 38.8761 3.61622 39.1798C4.21467 39.4841 4.85545 39.6968 5.5171 39.8106C6.17972 39.9195 6.84956 39.9786 7.521 39.9874C7.83009 39.9942 8.1338 39.9981 8.43995 39.9981C8.80567 40.0001 9.168 40.0001 9.53468 40.0001H116.978C117.338 40.0001 117.703 40.0001 118.062 39.9981C118.367 39.9981 118.679 39.9942 118.984 39.9874C119.654 39.9791 120.323 39.92 120.984 39.8106C121.648 39.696 122.291 39.4834 122.892 39.1798C123.491 38.8759 124.037 38.478 124.51 38.0011C124.986 37.5284 125.384 36.9836 125.691 36.3868C125.993 35.7872 126.202 35.1451 126.31 34.4825C126.422 33.8208 126.484 33.1516 126.496 32.4806C126.5 32.17 126.5 31.8692 126.5 31.5587C126.508 31.1954 126.508 30.8341 126.508 30.4649V9.53626C126.508 9.17005 126.508 8.80677 126.5 8.44447C126.5 8.13783 126.5 7.83021 126.496 7.52357C126.484 6.85255 126.422 6.18337 126.31 5.52157C126.202 4.85941 125.993 4.21763 125.691 3.61825C125.074 2.41533 124.095 1.43616 122.892 0.81845C122.291 0.515697 121.648 0.30437 120.984 0.19145C120.323 0.0812328 119.654 0.0221378 118.984 0.01469C118.679 0.00981 118.367 0.00395 118.062 0.002C117.703 0 117.338 0 116.978 0V0.00013Z" fill="#A6A6A6"/>
<path d="M8.44486 39.125C8.14019 39.125 7.84286 39.1211 7.54058 39.1143C6.91436 39.1061 6.2896 39.0516 5.67144 38.9512C5.09503 38.8519 4.53664 38.6673 4.0147 38.4033C3.49754 38.1415 3.02585 37.7983 2.6177 37.3867C2.20364 36.98 1.85891 36.5082 1.59719 35.9902C1.33258 35.4688 1.14945 34.9099 1.05419 34.333C0.951311 33.7131 0.895651 33.0863 0.887687 32.458C0.881347 32.2471 0.873047 31.5449 0.873047 31.5449V8.44434C0.873047 8.44434 0.881887 7.75293 0.887737 7.5498C0.895363 6.92248 0.950696 6.29665 1.05326 5.67773C1.1487 5.09925 1.33197 4.53875 1.59673 4.01563C1.85749 3.49795 2.2003 3.02586 2.61186 2.61768C3.02296 2.20562 3.49617 1.86061 4.01421 1.59521C4.53495 1.33209 5.09228 1.14873 5.66753 1.05127C6.28772 0.949836 6.91465 0.894996 7.54304 0.88721L8.44536 0.875H118.057L118.97 0.8877C119.593 0.895099 120.214 0.94945 120.829 1.05029C121.41 1.14898 121.973 1.33362 122.5 1.59814C123.538 2.13299 124.382 2.97916 124.915 4.01807C125.175 4.53758 125.356 5.09351 125.45 5.66699C125.554 6.29099 125.612 6.92174 125.624 7.5542C125.627 7.8374 125.627 8.1416 125.627 8.44434C125.635 8.81934 125.635 9.17627 125.635 9.53613V30.4648C125.635 30.8281 125.635 31.1826 125.627 31.54C125.627 31.8652 125.627 32.1631 125.623 32.4697C125.611 33.0909 125.554 33.7104 125.452 34.3232C125.359 34.9043 125.176 35.4675 124.912 35.9932C124.648 36.5056 124.306 36.9733 123.896 37.3789C123.488 37.7927 123.015 38.1379 122.497 38.4014C121.972 38.6674 121.409 38.8527 120.829 38.9512C120.211 39.0522 119.586 39.1067 118.96 39.1143C118.667 39.1211 118.36 39.125 118.062 39.125L116.978 39.127L8.44486 39.125Z" fill="#25303B"/>
<path d="M24.7719 20.3003C24.7827 19.4657 25.0044 18.6473 25.4164 17.9213C25.8284 17.1954 26.4174 16.5854 27.1285 16.1483C26.6767 15.5031 26.0808 14.9722 25.388 14.5976C24.6951 14.2231 23.9245 14.0152 23.1373 13.9906C21.4581 13.8143 19.8301 14.9954 18.9744 14.9954C18.1022 14.9954 16.7847 14.0081 15.3659 14.0373C14.4482 14.0669 13.5539 14.3338 12.77 14.8118C11.9861 15.2899 11.3395 15.9629 10.893 16.7651C8.959 20.1136 10.4016 25.0346 12.2542 27.7412C13.1811 29.0666 14.2644 30.547 15.6818 30.4945C17.0689 30.437 17.5869 29.61 19.2612 29.61C20.92 29.61 21.406 30.4945 22.8522 30.4611C24.3406 30.437 25.2784 29.1299 26.1727 27.792C26.8387 26.8476 27.3512 25.8039 27.6911 24.6995C26.8264 24.3338 26.0885 23.7216 25.5694 22.9393C25.0503 22.157 24.7729 21.2392 24.7719 20.3003Z" fill="white"/>
<path d="M22.0403 12.2094C22.8518 11.2352 23.2516 9.98298 23.1548 8.71875C21.9149 8.84897 20.7697 9.44153 19.9472 10.3784C19.5451 10.836 19.2371 11.3685 19.0408 11.9452C18.8446 12.522 18.7639 13.1318 18.8035 13.7397C19.4236 13.7461 20.0371 13.6117 20.5978 13.3466C21.1585 13.0815 21.6517 12.6927 22.0403 12.2094Z" fill="white"/>
<path d="M35.6553 14.7012V9.57764H33.7783V8.73438H38.4551V9.57763H36.582V14.7012H35.6553Z" fill="white"/>
<path d="M42.7648 13.4858C42.6441 13.8974 42.3825 14.2534 42.0258 14.4915C41.6691 14.7297 41.24 14.8348 40.8136 14.7886C40.517 14.7964 40.2222 14.7396 39.9497 14.622C39.6772 14.5045 39.4335 14.3291 39.2356 14.108C39.0377 13.8868 38.8903 13.6253 38.8036 13.3414C38.7169 13.0576 38.693 12.7583 38.7336 12.4643C38.6941 12.1695 38.7184 11.8695 38.8049 11.5849C38.8913 11.3002 39.038 11.0374 39.2348 10.8143C39.4317 10.5913 39.6742 10.4131 39.9459 10.2919C40.2176 10.1707 40.5122 10.1093 40.8097 10.1118C42.0627 10.1118 42.8185 10.9678 42.8185 12.3818V12.6919H39.6388V12.7417C39.6249 12.9069 39.6457 13.0732 39.6998 13.23C39.7539 13.3867 39.8402 13.5305 39.9531 13.6519C40.066 13.7734 40.2031 13.8699 40.3555 13.9353C40.5079 14.0007 40.6722 14.0335 40.838 14.0317C41.0506 14.0572 41.266 14.0189 41.4567 13.9217C41.6475 13.8245 41.8051 13.6728 41.9093 13.4858L42.7648 13.4858ZM39.6388 12.0347H41.9133C41.9245 11.8835 41.9039 11.7317 41.853 11.589C41.802 11.4463 41.7218 11.3158 41.6174 11.206C41.513 11.0961 41.3868 11.0093 41.2468 10.9511C41.1069 10.893 40.9564 10.8647 40.8048 10.8682C40.6511 10.8662 40.4986 10.8951 40.3562 10.953C40.2139 11.011 40.0845 11.0968 39.9759 11.2055C39.8672 11.3143 39.7814 11.4436 39.7235 11.586C39.6656 11.7284 39.6368 11.881 39.6388 12.0347H39.6388ZM40.2755 9.4458L41.3136 8.02344H42.3556L41.1935 9.4458H40.2755Z" fill="white"/>
<path d="M44.0527 8.44141H44.9414V14.7021H44.0527V8.44141Z" fill="white"/>
<path d="M50.2079 13.4858C50.0872 13.8974 49.8256 14.2534 49.4689 14.4915C49.1122 14.7297 48.6831 14.8348 48.2568 14.7886C47.9601 14.7964 47.6653 14.7396 47.3928 14.622C47.1203 14.5045 46.8766 14.3291 46.6787 14.108C46.4808 13.8868 46.3334 13.6253 46.2467 13.3414C46.16 13.0576 46.1361 12.7583 46.1767 12.4643C46.1372 12.1695 46.1615 11.8695 46.248 11.5849C46.3345 11.3002 46.4811 11.0374 46.678 10.8143C46.8748 10.5913 47.1173 10.4131 47.389 10.2919C47.6608 10.1707 47.9553 10.1093 48.2528 10.1118C49.5058 10.1118 50.2616 10.9678 50.2616 12.3818V12.6919H47.0819V12.7417C47.068 12.9069 47.0888 13.0732 47.1429 13.23C47.197 13.3867 47.2833 13.5305 47.3962 13.6519C47.5091 13.7734 47.6462 13.8699 47.7986 13.9353C47.9509 14.0007 48.1153 14.0335 48.2811 14.0317C48.4937 14.0572 48.7091 14.0189 48.8998 13.9217C49.0906 13.8245 49.2481 13.6728 49.3524 13.4858L50.2079 13.4858ZM47.0819 12.0347H49.3563C49.3675 11.8835 49.347 11.7317 49.296 11.589C49.2451 11.4463 49.1648 11.3158 49.0605 11.206C48.9561 11.0961 48.8299 11.0093 48.6899 10.9511C48.55 10.893 48.3994 10.8647 48.2479 10.8682C48.0942 10.8662 47.9417 10.8951 47.7993 10.953C47.657 11.011 47.5276 11.0968 47.419 11.2055C47.3103 11.3143 47.2245 11.4436 47.1666 11.586C47.1087 11.7284 47.0799 11.881 47.0819 12.0347ZM47.7186 9.4458L48.7567 8.02344H49.7987L48.6367 9.4458H47.7186Z" fill="white"/>
<path d="M54.4034 11.6715C54.3468 11.438 54.2084 11.2325 54.0133 11.0923C53.8182 10.952 53.5793 10.8862 53.34 10.9069C52.5958 10.9069 52.1407 11.4772 52.1407 12.4367C52.1407 13.4127 52.5997 13.9957 53.34 13.9957C53.577 14.0232 53.8159 13.9631 54.0117 13.8268C54.2076 13.6905 54.3469 13.4873 54.4034 13.2555H55.2677C55.2105 13.7115 54.9775 14.1271 54.6183 14.4137C54.2591 14.7003 53.8021 14.8352 53.3448 14.7897C53.0438 14.7992 52.7442 14.7428 52.4672 14.6245C52.1902 14.5061 51.9424 14.3287 51.7411 14.1046C51.5398 13.8805 51.3899 13.6151 51.3019 13.327C51.2139 13.0389 51.1899 12.735 51.2316 12.4367C51.192 12.1406 51.2175 11.8393 51.3064 11.5541C51.3952 11.2688 51.5453 11.0064 51.746 10.7851C51.9468 10.5639 52.1935 10.3891 52.4688 10.273C52.7441 10.1569 53.0414 10.1023 53.34 10.113C53.801 10.0705 54.2604 10.2096 54.6204 10.5007C54.9804 10.7918 55.2127 11.2119 55.2677 11.6716L54.4034 11.6715Z" fill="white"/>
<path d="M56.4473 8.44141H57.3282V10.9229H57.3985C57.5166 10.6635 57.7118 10.4469 57.9575 10.3026C58.2032 10.1582 58.4875 10.0932 58.7715 10.1162C58.9894 10.1044 59.2073 10.1407 59.4096 10.2228C59.6119 10.3048 59.7936 10.4305 59.9417 10.5908C60.0898 10.7512 60.2007 10.9422 60.2665 11.1504C60.3323 11.3585 60.3513 11.5786 60.3223 11.7949V14.7022H59.4326V12.0142C59.4326 11.2949 59.0976 10.9307 58.4697 10.9307C58.317 10.9181 58.1634 10.9391 58.0196 10.9922C57.8758 11.0452 57.7453 11.1291 57.6374 11.2378C57.5294 11.3465 57.4464 11.4776 57.3944 11.6217C57.3423 11.7658 57.3224 11.9196 57.3359 12.0723V14.7021H56.4473L56.4473 8.44141Z" fill="white"/>
<path d="M61.4395 13.4297C61.4395 12.6191 62.043 12.1519 63.1143 12.0854L64.334 12.0151V11.6265C64.334 11.1509 64.0195 10.8823 63.4121 10.8823C62.916 10.8823 62.5723 11.0645 62.4736 11.3828H61.6133C61.7041 10.6094 62.4316 10.1133 63.4531 10.1133C64.582 10.1133 65.2183 10.6753 65.2183 11.6265V14.7031H64.3633V14.0703H64.293C64.1503 14.2973 63.9499 14.4824 63.7122 14.6066C63.4746 14.7308 63.2083 14.7897 62.9405 14.7773C62.7514 14.797 62.5604 14.7768 62.3796 14.7181C62.1988 14.6594 62.0324 14.5635 61.891 14.4365C61.7495 14.3096 61.6363 14.1544 61.5585 13.9809C61.4808 13.8075 61.4402 13.6197 61.4395 13.4297ZM64.334 13.0449V12.6685L63.2344 12.7388C62.6143 12.7803 62.333 12.9912 62.333 13.3882C62.333 13.7935 62.6846 14.0293 63.168 14.0293C63.3096 14.0436 63.4527 14.0293 63.5887 13.9872C63.7247 13.9452 63.8509 13.8761 63.9597 13.7843C64.0685 13.6924 64.1577 13.5797 64.222 13.4526C64.2863 13.3256 64.3244 13.187 64.334 13.0449L64.334 13.0449Z" fill="white"/>
<path d="M66.6099 10.1986H67.4653V10.889H67.5317C67.6275 10.6493 67.7968 10.4462 68.0152 10.3087C68.2337 10.1712 68.49 10.1065 68.7476 10.1239C68.8807 10.1221 69.0136 10.1345 69.144 10.161V11.038C68.981 11.0031 68.8147 10.9851 68.6479 10.9843C68.5014 10.9711 68.3537 10.9887 68.2143 11.0361C68.075 11.0834 67.9471 11.1593 67.8388 11.259C67.7306 11.3587 67.6444 11.4799 67.5858 11.6149C67.5272 11.7499 67.4975 11.8957 67.4985 12.0428V14.7015H66.6099L66.6099 10.1986Z" fill="white"/>
<path d="M69.9614 15.1543H70.8706C70.9458 15.4809 71.3218 15.6919 71.9214 15.6919C72.6616 15.6919 73.1001 15.3403 73.1001 14.7451V13.8808H73.0337C72.8943 14.1228 72.6907 14.3214 72.4455 14.4549C72.2003 14.5884 71.9229 14.6515 71.644 14.6372C70.4946 14.6372 69.7837 13.7485 69.7837 12.4004C69.7837 11.0274 70.5024 10.1259 71.6528 10.1259C71.9387 10.116 72.2217 10.1848 72.4711 10.3248C72.7205 10.4648 72.9266 10.6707 73.0669 10.9199H73.1372V10.2007H73.9888V14.7407C73.9888 15.7704 73.1821 16.4238 71.9087 16.4238C70.7837 16.4238 70.0562 15.9194 69.9614 15.1543ZM73.1167 12.396C73.1167 11.499 72.6528 10.9243 71.896 10.9243C71.1314 10.9243 70.7017 11.499 70.7017 12.396C70.7017 13.2934 71.1314 13.8681 71.896 13.8681C72.6577 13.8681 73.1167 13.2978 73.1167 12.3959V12.396Z" fill="white"/>
<path d="M79.2126 13.4874C79.0918 13.8989 78.8302 14.2549 78.4735 14.4931C78.1168 14.7312 77.6878 14.8364 77.2614 14.7901C76.9647 14.7979 76.6699 14.7411 76.3974 14.6236C76.1249 14.5061 75.8812 14.3306 75.6833 14.1095C75.4854 13.8884 75.338 13.6268 75.2513 13.343C75.1646 13.0592 75.1407 12.7599 75.1813 12.4659C75.1418 12.171 75.1661 11.8711 75.2526 11.5864C75.3391 11.3017 75.4857 11.039 75.6826 10.8159C75.8795 10.5928 76.122 10.4146 76.3937 10.2934C76.6654 10.1722 76.96 10.1108 77.2575 10.1134C78.5104 10.1134 79.2663 10.9694 79.2663 12.3834V12.6934H76.0866V12.7432C76.0727 12.9085 76.0934 13.0748 76.1476 13.2315C76.2017 13.3883 76.288 13.532 76.4009 13.6535C76.5138 13.7749 76.6508 13.8714 76.8032 13.9368C76.9556 14.0022 77.12 14.0351 77.2858 14.0332C77.4984 14.0587 77.7138 14.0205 77.9045 13.9233C78.0953 13.826 78.2528 13.6743 78.3571 13.4873L79.2126 13.4874ZM76.0866 12.0362H78.361C78.3722 11.8851 78.3516 11.7333 78.3007 11.5906C78.2497 11.4479 78.1695 11.3174 78.0651 11.2075C77.9607 11.0977 77.8345 11.0109 77.6946 10.9527C77.5546 10.8945 77.4041 10.8662 77.2526 10.8697C77.0989 10.8678 76.9463 10.8966 76.804 10.9546C76.6616 11.0125 76.5323 11.0984 76.4236 11.2071C76.315 11.3158 76.2291 11.4452 76.1713 11.5876C76.1134 11.73 76.0846 11.8825 76.0866 12.0362H76.0866Z" fill="white"/>
<path d="M80.4595 10.1986H81.315V10.889H81.3814C81.4772 10.6493 81.6464 10.4462 81.8649 10.3087C82.0833 10.1712 82.3397 10.1065 82.5972 10.1239C82.7303 10.1221 82.8632 10.1345 82.9937 10.161V11.038C82.8306 11.0031 82.6644 10.9851 82.4976 10.9843C82.351 10.9711 82.2033 10.9887 82.064 11.036C81.9246 11.0834 81.7967 11.1593 81.6885 11.259C81.5802 11.3587 81.494 11.4799 81.4354 11.6149C81.3768 11.7499 81.3471 11.8957 81.3481 12.0428V14.7015H80.4595V10.1986Z" fill="white"/>
<path d="M86.1958 12.4487C86.1958 11.0259 86.9273 10.1245 88.0649 10.1245C88.3464 10.1115 88.6257 10.1789 88.8702 10.3188C89.1147 10.4587 89.3144 10.6653 89.4458 10.9145H89.5122V8.44141H90.4009V14.7021H89.5493V13.9907H89.479C89.3374 14.2382 89.1308 14.4422 88.8815 14.5807C88.6323 14.7192 88.3499 14.7869 88.0649 14.7764C86.9194 14.7764 86.1958 13.875 86.1958 12.4487ZM87.1138 12.4487C87.1138 13.4038 87.564 13.9785 88.3169 13.9785C89.0659 13.9785 89.5288 13.3955 89.5288 12.4526C89.5288 11.5142 89.0611 10.9228 88.3169 10.9228C87.5689 10.9228 87.1138 11.5015 87.1138 12.4487H87.1138Z" fill="white"/>
<path d="M91.6021 13.4297C91.6021 12.6191 92.2056 12.1519 93.2769 12.0854L94.4966 12.0151V11.6265C94.4966 11.1509 94.1821 10.8823 93.5747 10.8823C93.0786 10.8823 92.7349 11.0645 92.6362 11.3828H91.7759C91.8667 10.6094 92.5942 10.1133 93.6157 10.1133C94.7446 10.1133 95.3814 10.6753 95.3814 11.6265V14.7031H94.5259V14.0703H94.4556C94.3129 14.2973 94.1125 14.4824 93.8748 14.6066C93.6372 14.7308 93.3709 14.7897 93.103 14.7773C92.914 14.797 92.7229 14.7768 92.5422 14.7181C92.3614 14.6594 92.195 14.5635 92.0536 14.4365C91.9121 14.3095 91.7989 14.1543 91.7211 13.9809C91.6434 13.8075 91.6028 13.6197 91.6021 13.4297ZM94.4966 13.0449V12.6685L93.397 12.7388C92.7769 12.7803 92.4956 12.9912 92.4956 13.3882C92.4956 13.7934 92.8472 14.0293 93.3306 14.0293C93.4723 14.0436 93.6153 14.0293 93.7513 13.9872C93.8873 13.9451 94.0135 13.8761 94.1223 13.7843C94.2311 13.6924 94.3203 13.5796 94.3846 13.4526C94.4489 13.3256 94.487 13.187 94.4966 13.0449V13.0449Z" fill="white"/>
<path d="M96.7729 10.1968H97.6284V10.9122H97.6948C97.8075 10.6552 97.9975 10.4399 98.2384 10.2961C98.4792 10.1522 98.759 10.0872 99.0386 10.1099C99.2577 10.0934 99.4777 10.1265 99.6823 10.2066C99.8869 10.2867 100.071 10.4118 100.221 10.5726C100.37 10.7334 100.482 10.9259 100.547 11.1357C100.612 11.3455 100.629 11.5674 100.597 11.7847V14.6997H99.7085V12.0079C99.7085 11.2842 99.394 10.9244 98.7368 10.9244C98.5881 10.9174 98.4396 10.9428 98.3015 10.9986C98.1634 11.0544 98.0391 11.1394 97.937 11.2478C97.8348 11.3562 97.7574 11.4854 97.7098 11.6265C97.6623 11.7676 97.6459 11.9174 97.6616 12.0655V14.6998H96.7729V10.1968Z" fill="white"/>
<path d="M103.618 10.1133C104.63 10.1133 105.292 10.5845 105.379 11.3784H104.527C104.445 11.0479 104.122 10.8369 103.618 10.8369C103.122 10.8369 102.745 11.0723 102.745 11.4238C102.745 11.6928 102.972 11.8623 103.46 11.9741L104.208 12.1475C105.065 12.3462 105.466 12.7144 105.466 13.376C105.466 14.2236 104.676 14.79 103.601 14.79C102.53 14.79 101.832 14.3062 101.752 13.5083H102.642C102.719 13.6982 102.857 13.8568 103.035 13.9587C103.212 14.0607 103.419 14.0999 103.622 14.0703C104.175 14.0703 104.569 13.8223 104.569 13.4624C104.569 13.1938 104.358 13.02 103.907 12.9126L103.122 12.7305C102.265 12.5278 101.869 12.1436 101.869 11.4736C101.869 10.6753 102.6 10.1133 103.618 10.1133Z" fill="white"/>
<path d="M35.1982 18.0664H37.0576V30.4849H35.1982V18.0664Z" fill="white"/>
<path d="M39.2979 22.6104L40.3135 18.0664H42.1201L40.8897 22.6104H39.2979Z" fill="white"/>
<path d="M49.1465 27.1284H44.4131L43.2764 30.4849H41.2715L45.7549 18.0664H47.8379L52.3213 30.4849H50.2822L49.1465 27.1284ZM44.9033 25.5796H48.6553L46.8057 20.1318H46.754L44.9033 25.5796Z" fill="white"/>
<path d="M62.003 25.9602C62.003 28.7737 60.4971 30.5813 58.2246 30.5813C57.649 30.6114 57.0765 30.4788 56.5727 30.1987C56.0689 29.9185 55.6542 29.5022 55.376 28.9973H55.333V33.4817H53.4746V21.4323H55.2734V22.9382H55.3076C55.5986 22.4357 56.0203 22.0215 56.5279 21.7397C57.0356 21.4578 57.6101 21.3189 58.1904 21.3376C60.4883 21.3376 62.003 23.154 62.003 25.9602ZM60.0928 25.9602C60.0928 24.1267 59.1455 22.9216 57.7002 22.9216C56.2803 22.9216 55.3252 24.1521 55.3252 25.9602C55.3252 27.7844 56.2803 29.0061 57.7002 29.0061C59.1455 29.0061 60.0928 27.8098 60.0928 25.9602Z" fill="white"/>
<path d="M71.9673 25.9602C71.9673 28.7737 70.4614 30.5813 68.189 30.5813C67.6133 30.6114 67.0408 30.4788 66.537 30.1987C66.0332 29.9185 65.6185 29.5022 65.3403 28.9973H65.2973V33.4817H63.4395V21.4323H65.2378V22.9382H65.272C65.563 22.4357 65.9847 22.0215 66.4923 21.7397C66.9999 21.4578 67.5745 21.3189 68.1548 21.3376C70.4526 21.3376 71.9673 23.154 71.9673 25.9602ZM70.0571 25.9602C70.0571 24.1267 69.1099 22.9216 67.6646 22.9216C66.2446 22.9216 65.2896 24.1521 65.2896 25.9602C65.2896 27.7844 66.2446 29.0061 67.6646 29.0061C69.1099 29.0061 70.0571 27.8098 70.0571 25.9602Z" fill="white"/>
<path d="M78.5532 27.0249C78.6909 28.2564 79.8872 29.0649 81.522 29.0649C83.0884 29.0649 84.2153 28.2563 84.2153 27.146C84.2153 26.1821 83.5357 25.605 81.9263 25.2094L80.3169 24.8213C78.0366 24.2705 76.978 23.2041 76.978 21.4736C76.978 19.3311 78.8452 17.8594 81.4966 17.8594C84.1206 17.8594 85.9194 19.3311 85.98 21.4736H84.104C83.9917 20.2344 82.9673 19.4863 81.4702 19.4863C79.9731 19.4863 78.9487 20.2432 78.9487 21.3447C78.9487 22.2227 79.603 22.7393 81.2036 23.1347L82.5718 23.4707C85.1196 24.0732 86.1782 25.0971 86.1782 26.9135C86.1782 29.2368 84.3276 30.6919 81.3843 30.6919C78.6304 30.6919 76.771 29.271 76.6509 27.0249L78.5532 27.0249Z" fill="white"/>
<path d="M90.19 19.2891V21.4316H91.9117V22.9033H90.19V27.895C90.19 28.6704 90.5347 29.0317 91.2915 29.0317C91.4959 29.0282 91.7 29.0138 91.9029 28.9887V30.4516C91.5626 30.5152 91.2167 30.544 90.8706 30.5376C89.0376 30.5376 88.3228 29.8491 88.3228 28.0932V22.9033H87.0063V21.4316H88.3228V19.2891H90.19Z" fill="white"/>
<path d="M92.9077 25.9595C92.9077 23.1104 94.5854 21.3203 97.2017 21.3203C99.8267 21.3203 101.497 23.1103 101.497 25.9595C101.497 28.8159 99.8355 30.5981 97.2017 30.5981C94.5688 30.5981 92.9077 28.8159 92.9077 25.9595ZM99.603 25.9595C99.603 24.0049 98.7075 22.8516 97.2017 22.8516C95.6958 22.8516 94.8013 24.0137 94.8013 25.9595C94.8013 27.9214 95.6958 29.0659 97.2017 29.0659C98.7075 29.0659 99.603 27.9214 99.603 25.9595H99.603Z" fill="white"/>
<path d="M103.029 21.4323H104.801V22.9733H104.844C104.964 22.492 105.246 22.0666 105.643 21.7687C106.039 21.4709 106.526 21.3186 107.022 21.3375C107.236 21.3368 107.45 21.36 107.659 21.4069V23.1451C107.388 23.0625 107.106 23.0246 106.824 23.0328C106.554 23.0219 106.285 23.0695 106.035 23.1724C105.785 23.2753 105.56 23.4311 105.376 23.6291C105.192 23.827 105.053 24.0624 104.969 24.3191C104.884 24.5759 104.857 24.8478 104.887 25.1163V30.4864H103.029L103.029 21.4323Z" fill="white"/>
<path d="M116.226 27.8267C115.976 29.4702 114.375 30.5981 112.328 30.5981C109.694 30.5981 108.059 28.8335 108.059 26.0024C108.059 23.1621 109.703 21.3203 112.25 21.3203C114.754 21.3203 116.33 23.041 116.33 25.7866V26.4233H109.935V26.5356C109.906 26.8688 109.947 27.2045 110.057 27.5203C110.168 27.8362 110.344 28.125 110.574 28.3675C110.804 28.6101 111.084 28.8008 111.394 28.9271C111.703 29.0534 112.036 29.1124 112.371 29.1001C112.81 29.1412 113.25 29.0395 113.627 28.8101C114.004 28.5806 114.296 28.2357 114.461 27.8267L116.226 27.8267ZM109.944 25.1245H114.47C114.487 24.8249 114.442 24.525 114.337 24.2437C114.232 23.9625 114.071 23.7059 113.862 23.4901C113.654 23.2743 113.403 23.1039 113.125 22.9896C112.848 22.8754 112.55 22.8197 112.25 22.8262C111.947 22.8244 111.647 22.8825 111.367 22.9973C111.087 23.1121 110.832 23.2812 110.618 23.4949C110.403 23.7086 110.233 23.9626 110.118 24.2423C110.002 24.522 109.943 24.8218 109.944 25.1245Z" fill="white"/>
</g>
<defs>
<clipPath id="clip0">
<rect width="126.508" height="40" fill="white"/>
</clipPath>
</defs>
</svg>
