<svg width="130" height="129" viewBox="0 0 130 129" fill="none" xmlns="http://www.w3.org/2000/svg">
<circle cx="64.6841" cy="64.7268" r="45.6841" stroke="black" stroke-width="2"/>
<mask id="path-2-inside-1" fill="white">
<path d="M33.3854 89.6494L39.6558 80.3795C42.6445 75.9612 40.9807 69.836 36.1983 67.6509L25.0341 62.7263C25.0114 63.2948 25 63.8664 25 64.4406C25 73.939 28.1293 82.6857 33.3854 89.6494Z"/>
<path d="M96.6146 89.6494L90.3442 80.3795C87.3555 75.9612 89.0193 69.836 93.8017 67.6509L104.966 62.7263C104.989 63.2948 105 63.8664 105 64.4406C105 73.939 101.871 82.6857 96.6146 89.6494Z"/>
</mask>
<path d="M33.3854 89.6494L39.6558 80.3795C42.6445 75.9612 40.9807 69.836 36.1983 67.6509L25.0341 62.7263C25.0114 63.2948 25 63.8664 25 64.4406C25 73.939 28.1293 82.6857 33.3854 89.6494Z" fill="#F5F5F5"/>
<path d="M96.6146 89.6494L90.3442 80.3795C87.3555 75.9612 89.0193 69.836 93.8017 67.6509L104.966 62.7263C104.989 63.2948 105 63.8664 105 64.4406C105 73.939 101.871 82.6857 96.6146 89.6494Z" fill="#F5F5F5"/>
<path d="M33.3854 89.6494L33.7845 89.3481L33.3631 88.7899L32.9712 89.3692L33.3854 89.6494ZM96.6146 89.6494L97.0287 89.3692L96.6368 88.7899L96.2155 89.3481L96.6146 89.6494ZM32.9712 89.3692L32.9192 89.4462L33.7475 90.0065L33.7995 89.9295L32.9712 89.3692ZM96.2004 89.9295L96.2525 90.0065L97.0808 89.4462L97.0287 89.3692L96.2004 89.9295ZM33.842 89.4242C33.8228 89.3988 33.8036 89.3735 33.7845 89.3481L32.9863 89.9506C33.0059 89.9766 33.0256 90.0025 33.0453 90.0285L33.842 89.4242ZM96.2155 89.3481C96.1963 89.3736 96.1772 89.3989 96.158 89.4241L96.9547 90.0285C96.9744 90.0025 96.9941 89.9765 97.0137 89.9506L96.2155 89.3481ZM39.6558 80.3795L38.8275 79.8192L38.8275 79.8192L39.6558 80.3795ZM33.3854 89.6494L32.5872 90.2518L33.4299 91.3683L34.2137 90.2096L33.3854 89.6494ZM25.0341 62.7263L25.4377 61.8114L24.0934 61.2184L24.0349 62.6865L25.0341 62.7263ZM36.1983 67.6509L36.6139 66.7412L36.6019 66.7359L36.1983 67.6509ZM90.3442 80.3795L91.1725 79.8192L91.1725 79.8192L90.3442 80.3795ZM96.6146 89.6494L95.7863 90.2097L96.57 91.3683L97.4127 90.2518L96.6146 89.6494ZM104.966 62.7263L105.965 62.6865L105.907 61.2184L104.562 61.8114L104.966 62.7263ZM93.8017 67.6509L93.398 66.7359L93.3861 66.7413L93.8017 67.6509ZM38.8275 79.8192L32.5571 89.0891L34.2137 90.2096L40.4841 80.9398L38.8275 79.8192ZM24.6305 63.6413L35.7947 68.5658L36.6019 66.7359L25.4377 61.8114L24.6305 63.6413ZM40.4841 80.9398C43.8093 76.0239 41.9746 69.1907 36.6139 66.7413L35.7827 68.5604C39.9868 70.4813 41.4796 75.8985 38.8275 79.8192L40.4841 80.9398ZM89.5159 80.9398L95.7863 90.2097L97.4429 89.0891L91.1725 79.8192L89.5159 80.9398ZM104.562 61.8114L93.3981 66.7359L94.2052 68.5658L105.369 63.6413L104.562 61.8114ZM91.1725 79.8192C88.5204 75.8985 90.0132 70.4813 94.2173 68.5604L93.3861 66.7413C88.0254 69.1907 86.1906 76.0239 89.5159 80.9398L91.1725 79.8192ZM34.1836 89.0469C29.0553 82.2527 26 73.7165 26 64.4406H24C24 74.1616 27.2033 83.1187 32.5872 90.2518L34.1836 89.0469ZM104 64.4406C104 73.7165 100.945 82.2527 95.8164 89.0469L97.4127 90.2518C102.797 83.1188 106 74.1616 106 64.4406H104ZM103.967 62.7661C103.989 63.3214 104 63.8796 104 64.4406H106C106 63.8531 105.988 63.2683 105.965 62.6865L103.967 62.7661ZM26 64.4406C26 63.8796 26.0112 63.3214 26.0333 62.7661L24.0349 62.6865C24.0117 63.2683 24 63.8531 24 64.4406H26Z" fill="black" mask="url(#path-2-inside-1)"/>
<mask id="path-4-inside-2" fill="white">
<path d="M104 52.7263C78.533 46.2391 51.467 46.2391 26 52.7263C31.088 36.5189 46.624 24.7263 65 24.7263C83.376 24.7263 98.912 36.5189 104 52.7263Z"/>
</mask>
<path d="M104 52.7263C78.533 46.2391 51.467 46.2391 26 52.7263C31.088 36.5189 46.624 24.7263 65 24.7263C83.376 24.7263 98.912 36.5189 104 52.7263Z" fill="#F5F5F5"/>
<path d="M26 52.7263L25.0459 52.4268L24.5087 54.1381L26.2468 53.6954L26 52.7263ZM104 52.7263L103.753 53.6954L105.491 54.1381L104.954 52.4268L104 52.7263ZM26.2468 53.6954C51.5519 47.2494 78.4481 47.2494 103.753 53.6954L104.247 51.7573C78.6179 45.2287 51.3821 45.2287 25.7532 51.7573L26.2468 53.6954ZM26.9541 53.0258C31.9098 37.24 47.056 25.7263 65 25.7263V23.7263C46.1919 23.7263 30.2663 35.7979 25.0459 52.4268L26.9541 53.0258ZM65 25.7263C82.944 25.7263 98.0902 37.24 103.046 53.0258L104.954 52.4268C99.7337 35.7979 83.8081 23.7263 65 23.7263V25.7263Z" fill="black" mask="url(#path-4-inside-2)"/>
<path d="M44.2203 37.7111C46.469 34.8485 49.505 32.6826 53.0336 31.7883C56.5841 30.8884 61.2678 29.9265 65.0656 29.9265C68.9134 29.9265 73.8855 30.914 77.6502 31.8238C81.2914 32.7039 84.4413 34.9001 86.7554 37.8459V37.8459C89.3233 41.115 86.5755 45.9318 82.4416 45.4937C76.8905 44.9054 70.3051 44.3562 65.0656 44.3562C60.0106 44.3562 53.851 44.8674 48.5916 45.4317C44.4208 45.8792 41.629 41.0098 44.2203 37.7111V37.7111Z" fill="#E1E1E1"/>
<mask id="path-7-inside-3" fill="white">
<path d="M48.8764 91.9395L39 94.8215C45.8795 100.921 54.7796 104.726 64.5 104.726C74.2204 104.726 83.1205 100.921 90 94.8215L79.3355 91.8083C69.3553 88.9885 58.8341 89.0338 48.8764 91.9395Z"/>
</mask>
<path d="M48.8764 91.9395L39 94.8215C45.8795 100.921 54.7796 104.726 64.5 104.726C74.2204 104.726 83.1205 100.921 90 94.8215L79.3355 91.8083C69.3553 88.9885 58.8341 89.0338 48.8764 91.9395Z" fill="#F5F5F5"/>
<path d="M39 94.8215L38.7199 93.8615L36.9819 94.3687L38.3366 95.5697L39 94.8215ZM48.8764 91.9395L48.5963 90.9795L48.5963 90.9795L48.8764 91.9395ZM79.3355 91.8083L79.6074 90.846L79.6074 90.846L79.3355 91.8083ZM90 94.8215L90.6634 95.5697L92.0319 94.3564L90.2719 93.8591L90 94.8215ZM39.2801 95.7814L49.1565 92.8995L48.5963 90.9795L38.7199 93.8615L39.2801 95.7814ZM79.0636 92.7706L89.7281 95.7838L90.2719 93.8591L79.6074 90.846L79.0636 92.7706ZM49.1565 92.8995C58.9341 90.0463 69.264 90.0018 79.0636 92.7706L79.6074 90.846C69.4465 87.9751 58.7341 88.0213 48.5963 90.9795L49.1565 92.8995ZM64.5 103.726C55.0472 103.726 46.3781 100.026 39.6634 94.0732L38.3366 95.5697C45.381 101.815 54.512 105.726 64.5 105.726V103.726ZM89.3366 94.0732C82.6219 100.026 73.9528 103.726 64.5 103.726V105.726C74.488 105.726 83.619 101.815 90.6634 95.5697L89.3366 94.0732Z" fill="black" mask="url(#path-7-inside-3)"/>
<path d="M63.8672 64.4275L49.3828 55.9674" stroke="#FF3333" stroke-width="2"/>
<path fill-rule="evenodd" clip-rule="evenodd" d="M67.4431 61.9558L89.7033 49.2492L90.5476 50.7219L68.2874 63.4286L67.4431 61.9558Z" fill="#FF3333" stroke="white" stroke-width="2"/>
<circle cx="64.6589" cy="64.727" r="2.39521" fill="white" stroke="#FF3333" stroke-width="2"/>
<path d="M66.7838 63.4533L90.125 49.9626" stroke="#FF3333" stroke-width="2"/>
<path d="M9.52761 57.2417L6.09375 64.1864C16.1664 64.1864 18.9389 69.0735 19.0661 71.517L21.7966 64.1864C22.4201 62.7152 24.3286 61.0722 27.6704 58.8364C29.2859 57.7555 30.8205 56.5258 31.9354 54.9336C34.885 50.7213 36.2874 46.2255 36.6169 42.5806C38.0159 39.6226 40.1246 37.3334 38.3482 35.8673C37.2242 36.6251 35.9285 37.8383 34.7719 38.9895C33.6605 40.0957 31.9037 40.2014 30.6901 39.2084C29.3245 38.0911 29.194 36.0497 30.4062 34.7676L34.3277 30.6202L30.7921 29.3201C30.3641 29.1627 29.8952 29.1563 29.463 29.302L25.8631 30.5154C25.6573 30.5848 25.4415 30.6202 25.2243 30.6202H22.6585C22.0737 30.6202 21.5181 30.8762 21.1381 31.3208L19.53 33.2025C19.23 33.5535 18.8178 33.7899 18.3633 33.8716L17.7397 33.9836C17.0912 34.1001 16.5417 34.5285 16.2706 35.1289L12.6304 43.1894C11.3919 45.9316 10.5731 48.8446 10.2013 51.8304L9.52761 57.2417Z" fill="white"/>
<path d="M19.2496 39.6876L23.918 30.7751H21.796L19.2496 33.3216L16.7032 34.1704L13.308 41.8096L10.7616 48.6L9.48838 57.088L6.51758 63.8784L10.7616 64.3028L13.7324 57.9368L15.43 49.4488L19.2496 39.6876Z" fill="#E1E1E1"/>
<path d="M9.52761 57.2417L6.09375 64.1864C16.1664 64.1864 18.9389 69.0735 19.0661 71.517L21.7966 64.1864C22.4201 62.7152 24.3286 61.0722 27.6704 58.8364C29.2859 57.7555 30.8205 56.5258 31.9354 54.9336C34.885 50.7213 36.2874 46.2255 36.6169 42.5806C38.0159 39.6226 40.1246 37.3334 38.3482 35.8673C37.2242 36.6251 35.9285 37.8383 34.7719 38.9895C33.6605 40.0957 31.9037 40.2014 30.6901 39.2084C29.3245 38.0911 29.194 36.0497 30.4062 34.7676L34.3277 30.6202L30.7921 29.3201C30.3641 29.1627 29.8952 29.1563 29.463 29.302L25.8631 30.5154C25.6573 30.5848 25.4415 30.6202 25.2243 30.6202H22.6585C22.0737 30.6202 21.5181 30.8762 21.1381 31.3208L19.53 33.2025C19.23 33.5535 18.8178 33.7899 18.3633 33.8716L17.7397 33.9836C17.0912 34.1001 16.5417 34.5285 16.2706 35.1289L12.6304 43.1894C11.3919 45.9316 10.5731 48.8446 10.2013 51.8304L9.52761 57.2417Z" stroke="black" stroke-width="2"/>
<path d="M1 67.6976L3.54641 64.3025C5.80988 64.0196 9.65778 63.8782 13.732 65.5758C17.8063 67.2734 19.1078 71.0924 19.2492 72.7901L17.1272 78.3073" stroke="black" stroke-width="2"/>
<path d="M120.472 57.2417L123.906 64.1864C113.834 64.1864 111.061 69.0735 110.934 71.517L108.203 64.1864C107.58 62.7152 105.671 61.0722 102.33 58.8364C100.714 57.7555 99.1795 56.5258 98.0646 54.9336C95.115 50.7213 93.7126 46.2255 93.3831 42.5806C91.9841 39.6226 89.8754 37.3334 91.6518 35.8673C92.7758 36.6251 94.0715 37.8383 95.2281 38.9895C96.3395 40.0957 98.0963 40.2014 99.3099 39.2084C100.676 38.0911 100.806 36.0497 99.5938 34.7676L95.6723 30.6202L99.2079 29.3201C99.6359 29.1627 100.105 29.1563 100.537 29.302L104.137 30.5154C104.343 30.5848 104.559 30.6202 104.776 30.6202H107.341C107.926 30.6202 108.482 30.8762 108.862 31.3208L110.47 33.2025C110.77 33.5535 111.182 33.7899 111.637 33.8716L112.26 33.9836C112.909 34.1001 113.458 34.5285 113.729 35.1289L117.37 43.1894C118.608 45.9316 119.427 48.8446 119.799 51.8304L120.472 57.2417Z" fill="white"/>
<path d="M101.158 35.0188L96.9143 30.3503L96.0655 31.1991L99.8851 35.8676V38.414L98.1875 39.6872H96.0655L91.8215 35.8676L90.9727 37.5652L93.9435 42.658V45.6288L96.0655 51.9948L99.8851 57.0876L107.524 63.0292L110.495 70.6684L113.466 66.4244L111.344 61.3316L109.063 57.7477C108.605 57.0277 108.057 56.3693 107.431 55.7885L104.078 52.6744C102.994 51.668 102.147 50.4337 101.597 49.0604L100.565 46.4805C100.126 45.3825 100.09 44.1643 100.464 43.0424L101.583 39.6872L101.158 35.0188Z" fill="#E1E1E1"/>
<path d="M120.472 57.2417L123.906 64.1864C113.834 64.1864 111.061 69.0735 110.934 71.517L108.203 64.1864C107.58 62.7152 105.671 61.0722 102.33 58.8364C100.714 57.7555 99.1795 56.5258 98.0646 54.9336C95.115 50.7213 93.7126 46.2255 93.3831 42.5806C91.9841 39.6226 89.8754 37.3334 91.6518 35.8673C92.7758 36.6251 94.0715 37.8383 95.2281 38.9895C96.3395 40.0957 98.0963 40.2014 99.3099 39.2084C100.676 38.0911 100.806 36.0497 99.5938 34.7676L95.6723 30.6202L99.2079 29.3201C99.6359 29.1627 100.105 29.1563 100.537 29.302L104.137 30.5154C104.343 30.5848 104.559 30.6202 104.776 30.6202H107.341C107.926 30.6202 108.482 30.8762 108.862 31.3208L110.47 33.2025C110.77 33.5535 111.182 33.7899 111.637 33.8716L112.26 33.9836C112.909 34.1001 113.458 34.5285 113.729 35.1289L117.37 43.1894C118.608 45.9316 119.427 48.8446 119.799 51.8304L120.472 57.2417Z" stroke="black" stroke-width="2"/>
<path d="M129 67.6976L126.454 64.3025C124.19 64.0196 120.342 63.8782 116.268 65.5758C112.194 67.2734 110.892 71.0924 110.751 72.7901L112.873 78.3073" stroke="black" stroke-width="2"/>
</svg>
