<?xml version="1.0" encoding="iso-8859-1"?>
<svg width="1440" height="422" viewBox="0 0 1440 422" fill="none" xmlns="http://www.w3.org/2000/svg">
<g clip-path="url(#clip0)">
<path d="M1259.8 229.592L1211.18 371.406L1134.52 312.508V311.936L1133.95 312.508L1041.28 335.953L956.043 283.344L856.506 349.677L786.143 322.229L725.506 363.972L685.462 282.772V283.344L625.969 398.854L498.973 379.412L493.252 253.609L349.095 205.003L348.523 204.432V205.003L206.082 359.97L119.13 229.592L104.257 266.189L57.9205 223.302L-54.2018 278.198L-25.5991 433.164L-162.32 484.629L-168.04 528.66L-260.141 589.274L-163.464 630.446L-124.564 723.082L-127.997 781.409L-200.075 821.437L-205.224 1008.43V1009L-132.573 868.327L-35.8961 870.615L80.8026 728.229L124.851 788.271V788.843L166.61 676.192L239.261 656.75L301.615 478.339L516.707 538.381L661.436 492.634L670.589 406.288L750.676 418.296L854.79 349.677L907.99 370.263L1001.23 346.246L1061.87 426.874L1059.58 524.085L1081.32 561.254L1057.87 612.147L864.515 659.037L791.864 737.95L674.021 779.122H673.449L796.44 801.423L835.912 719.651L932.589 678.48L1005.81 699.065L1025.26 666.471L1146.54 672.761L1113.93 612.719H1230.06H1230.63H1230.06L1372.5 484.629H1373.07L1372.5 484.057L1313.58 351.964L1352.48 301.643L1353.05 301.071L1302.71 326.232L1259.8 229.592ZM785.571 322.801L751.82 418.296L724.934 364.544L785.571 322.801ZM724.934 364.544L672.305 400.57L684.89 284.488L724.934 364.544ZM684.89 284.488L672.305 400.57L665.44 405.144L625.969 398.854L684.89 284.488ZM672.305 400.57L671.733 405.716L666.012 404.572L672.305 400.57ZM-35.324 870.615L-132.001 868.327L-63.9267 804.282L-35.324 870.615ZM-131.429 867.756L-77.6559 785.412L-63.9267 803.711L-131.429 867.756ZM477.235 442.885L464.65 413.15L497.829 379.412L505.266 444.601L477.235 442.885ZM505.838 445.173L516.707 537.809L477.235 442.885L505.838 445.173ZM1.28735 617.865L31.0341 510.361L101.397 601.282L1.28735 617.865ZM1.28735 617.865L-80.5162 569.26L30.462 509.789L31.0341 510.361L1.28735 617.865ZM44.7633 453.178L29.89 509.218L-25.0271 433.736L44.7633 453.178ZM84.235 464.043L31.0341 509.218L45.9074 453.178L84.235 464.043ZM45.3354 452.606L73.3659 344.53L155.741 402.857L84.235 463.471L45.3354 452.606ZM84.235 464.043L142.012 480.054L31.0341 509.218L84.235 464.043ZM84.235 463.471L155.741 402.857L175.763 416.581L142.012 479.482L84.235 463.471ZM156.314 402.857L205.51 361.113L175.763 417.153L156.314 402.857ZM206.082 360.541L238.689 460.612L176.335 416.581L206.082 360.541ZM206.654 360.541L290.174 389.705L239.261 461.184L206.654 360.541ZM156.314 402.285L73.938 344.53L206.082 359.97L156.314 402.285ZM45.3354 452.606L-24.455 433.164L73.3659 344.53L45.3354 452.606ZM30.462 509.218L-51.9135 498.353L-25.0271 433.164L30.462 509.218ZM29.89 509.789L-81.0882 569.26L-51.9135 498.925L29.89 509.789ZM-81.0882 568.688L-110.263 490.919L-51.9135 498.353L-81.0882 568.688ZM-81.6603 568.688L-138.293 509.218L-110.263 490.919L-81.6603 568.688ZM0.715271 617.865L-65.6428 643.026L-81.0882 569.26L0.715271 617.865ZM0.715271 618.437L-59.9223 669.33L-65.6428 643.598L0.715271 618.437ZM0.715271 618.437L-45.621 736.234L-59.9223 669.33L0.715271 618.437ZM31.0341 510.361V509.789L142.584 480.626L101.397 601.282L31.0341 510.361ZM176.335 417.153L238.689 461.184L143.156 480.054L176.335 417.153ZM290.174 389.705L319.349 399.998L314.772 442.885L239.261 461.184L290.174 389.705ZM290.174 389.133L325.641 339.384L318.776 399.426L290.174 389.133ZM319.349 399.998L346.235 409.147L314.772 442.313L319.349 399.998ZM319.349 399.426L326.213 339.384L394.859 328.519L402.868 349.105L346.235 409.147L319.349 399.426ZM465.222 413.15L427.466 323.372L498.401 379.984L465.222 413.15ZM464.65 413.722L437.763 440.598L427.466 323.944L464.65 413.722ZM395.431 327.947L426.894 322.801L402.868 347.961L395.431 327.947ZM402.868 349.105L437.763 440.598L346.807 409.147L402.868 349.105ZM402.868 348.533L426.894 322.801L437.191 439.454L402.868 348.533ZM464.65 413.722L476.663 442.885L437.763 440.598L464.65 413.722ZM498.973 379.984L599.082 450.891L506.982 445.173L498.973 379.984ZM427.466 322.801L395.431 327.947L349.095 205.575L497.829 378.84L427.466 322.801ZM394.859 327.947L326.213 338.812L348.523 205.003L394.859 327.947ZM326.213 338.812L290.174 389.133L206.654 359.97L348.523 205.003L326.213 338.812ZM73.3659 344.53L104.257 266.761L206.082 359.97L73.3659 344.53ZM-24.455 432.592L21.3092 317.082L73.3659 343.958L-24.455 432.592ZM-51.9135 498.353L-109.691 490.347L-25.0271 433.164L-51.9135 498.353ZM-138.293 509.218L-161.748 484.629L-110.835 490.347L-138.293 509.218ZM-138.866 509.218L-150.879 517.223L-162.32 485.201L-138.866 509.218ZM-138.293 509.218L-81.0882 568.688L-126.852 582.984L-149.735 516.651L-138.293 509.218ZM-81.0882 569.26L-65.6428 643.026L-101.682 656.75L-127.424 583.556L-81.0882 569.26ZM-101.682 656.75L-176.621 598.995L-127.424 583.556L-101.682 656.75ZM-102.826 656.75L-163.464 631.018L-176.621 599.567L-102.826 656.75ZM-101.682 656.75L-65.6428 643.026L-59.9223 668.758L-80.5162 685.913L-101.682 656.75ZM-59.9223 669.902L-46.193 736.234L-80.5162 687.057L-59.9223 669.902ZM-46.193 737.378L-63.9267 804.282L-77.6559 785.984L-46.193 737.378ZM-77.6559 785.412L-93.6734 763.682L-45.621 737.378L-77.6559 785.412ZM-45.621 736.806L39.0428 712.789L-63.3546 804.282L-45.621 736.806ZM-45.621 736.234L1.28735 618.437L57.3485 695.634L39.0428 712.218L-45.621 736.234ZM1.85938 618.437L83.6629 672.761L57.9205 695.634L1.85938 618.437ZM57.9205 695.634L64.7852 704.784L40.1869 711.646L57.9205 695.634ZM57.9205 695.634L83.6629 672.761L111.693 691.632L64.7852 705.356L57.9205 695.634ZM111.693 691.632L81.3747 728.229L64.2131 704.784L111.693 691.632ZM111.693 691.06L83.6629 672.761L107.117 651.603L111.693 691.06ZM107.689 651.603L210.086 560.111L112.266 691.06L107.689 651.603ZM83.6629 672.761L1.28735 618.437L101.397 601.282L107.117 651.032L83.6629 672.761ZM142.584 480.054L238.689 461.184L101.969 600.711L142.584 480.054ZM314.2 442.885L301.615 478.339L239.261 460.612L314.2 442.885ZM346.235 409.147L436.619 440.598L314.772 442.885L346.235 409.147ZM437.763 441.17L477.235 443.457L516.707 538.381L437.763 441.17ZM506.41 445.173L599.082 450.891L517.279 538.381L506.41 445.173ZM664.868 405.144L599.082 450.319L625.397 398.854L664.868 405.144ZM599.082 450.891L498.973 379.984L625.397 399.426L599.082 450.891ZM498.401 379.412L349.095 205.003L492.68 253.609L498.401 379.412ZM119.13 230.164L205.51 359.398L104.829 266.189L119.13 230.164ZM104.257 266.761L73.3659 343.958L21.3092 317.082L57.9205 223.874L104.257 266.761ZM20.7371 317.082L-53.6297 278.198L57.9205 223.874L20.7371 317.082ZM-53.6297 278.198L20.7371 317.082L-25.0271 432.592L-53.6297 278.198ZM-110.263 490.347L-161.176 484.057L-25.5991 433.164L-110.263 490.347ZM-161.748 485.201L-150.307 517.223L-167.468 528.088L-161.748 485.201ZM-167.468 528.66L-150.307 517.223L-127.424 582.984L-176.621 598.423L-167.468 528.66ZM-177.193 598.995L-259.569 589.274L-168.04 528.66L-177.193 598.995ZM-258.997 589.846L-177.193 598.995L-164.036 630.446L-258.997 589.846ZM-163.464 631.018L-102.254 657.322L-81.6603 687.057L-125.136 723.654L-163.464 631.018ZM-123.992 723.654L-80.5162 687.057L-45.621 736.806L-93.6734 763.682L-123.992 723.654ZM-123.992 723.654L-94.2454 763.111L-126.852 781.409L-123.992 723.654ZM-127.424 781.981L-94.2454 763.682L-77.6559 785.412L-131.429 868.327L-127.424 781.981ZM-199.503 822.009L-127.424 781.981L-132.001 868.327L-199.503 822.009ZM-199.503 822.581L-132.001 868.899L-132.573 869.471L-204.652 1008.43L-199.503 822.581ZM-34.752 870.615L-63.3546 804.282L39.6149 712.218L64.7852 704.784L81.9467 728.229L-34.752 870.615ZM81.9467 728.229L112.266 691.632L125.423 788.271L81.9467 728.229ZM125.423 788.271L112.266 691.632L167.183 676.764L125.423 788.271ZM112.266 691.06L210.086 560.111L167.183 676.764L112.266 691.06ZM167.183 676.192L210.659 558.967V558.395L107.689 651.032L101.969 601.282L239.261 461.184L240.405 656.75L167.183 676.192ZM239.833 656.178L238.689 461.184L301.615 478.911L239.833 656.178ZM314.772 442.885L437.763 440.598L516.707 538.381L302.187 478.911L314.772 442.885ZM662.008 492.634L517.279 538.381L599.082 450.891L665.44 405.144L671.733 406.288L662.008 492.634ZM672.305 400.57L724.934 364.544L751.82 418.296L671.733 406.288L672.305 400.57ZM752.392 418.296L786.143 322.801L855.934 349.677L752.392 418.296ZM1371.92 484.057L1238.06 449.747L1267.24 412.006L1371.92 484.057ZM1121.94 556.108L1154.55 525.801L1229.48 612.147L1121.94 556.108ZM1121.94 556.108L1093.34 541.24L1119.08 484.629L1154.55 525.801L1121.94 556.108ZM1243.79 394.851L1238.64 449.175L1211.75 372.55L1243.79 394.851ZM1064.16 427.446L1118.51 434.308L1119.08 484.057L1064.16 427.446ZM1064.16 427.446L1117.93 407.432V434.308L1064.16 427.446ZM1118.51 406.86L1211.18 371.978L1238.06 449.175L1118.51 434.308V406.86ZM1211.18 371.978L1118.51 406.86V383.415L1134.52 313.08L1211.18 371.978ZM1117.93 383.415L1098.48 371.406L1133.95 313.651L1117.93 383.415ZM1117.93 383.415L1064.16 426.874L1098.48 371.406L1117.93 383.415ZM1117.93 383.415V406.86L1064.16 426.874L1117.93 383.415ZM1118.51 484.629L1061.3 524.657L1063.59 428.018L1118.51 484.629ZM1118.51 484.629L1092.76 540.668L1061.3 524.085L1118.51 484.629ZM1119.08 484.629L1118.51 434.88L1238.06 449.747L1155.12 525.801L1119.08 484.629ZM1238.64 449.175L1243.79 394.851L1267.81 411.434L1238.64 449.175ZM1243.79 394.28L1247.79 353.68L1302.71 326.803L1313.58 351.964L1267.81 411.434L1243.79 394.28ZM1243.79 394.28L1211.75 371.978L1247.79 354.251L1243.79 394.28ZM1211.18 371.978L1259.8 231.88L1247.79 354.251L1211.18 371.978ZM1133.95 313.08L1097.91 371.406L1041.85 337.096L1133.95 313.08ZM956.615 284.488L1041.28 336.525L1002.95 346.246L956.615 284.488ZM856.506 349.677L955.471 284.488L909.135 370.263L856.506 349.677ZM909.707 370.263L956.043 284.488L1002.38 346.818L909.707 370.263ZM1002.95 346.246L1041.28 336.525L1097.91 371.406L1063.59 427.446L1002.95 346.246ZM1061.87 524.657L1092.76 540.668L1083.61 561.254L1061.87 524.657ZM1083.61 561.826L1092.76 541.24L1121.37 556.108L1094.48 580.696L1083.61 561.826ZM1094.48 580.696L1060.16 612.147L1083.04 562.398L1094.48 580.696ZM1060.73 612.147L1095.05 580.696L1113.93 612.147H1060.73ZM676.309 779.122L793.58 737.95L797.584 800.851L676.309 779.122ZM798.729 800.851L794.724 737.95L838.2 719.651L798.729 800.851ZM794.724 737.95L866.231 660.181L837.628 719.651L794.724 737.95ZM838.2 719.651L866.803 659.609L934.305 678.48L838.2 719.651ZM867.375 659.609L1059.01 612.719L969.772 663.612L934.877 678.48L867.375 659.609ZM969.772 663.612L1007.53 698.494L935.449 677.908L969.772 663.612ZM1008.1 699.065L970.344 664.184L1027.55 667.043L1008.1 699.065ZM970.344 663.612L1059.58 612.719L1027.55 666.471L970.344 663.612ZM1060.16 612.719L1148.82 672.761L1028.12 667.043L1060.16 612.719ZM1148.82 672.189L1060.73 612.719H1113.93L1148.82 672.189ZM1095.05 580.696L1121.94 556.108L1229.48 612.719H1113.36L1095.05 580.696ZM1155.12 525.801L1238.06 449.747L1230.06 612.719L1155.12 525.801ZM1238.64 449.747L1372.5 484.629L1230.06 612.719L1238.64 449.747ZM1372.5 484.057L1268.38 411.434L1314.15 352.536L1372.5 484.057ZM1352.48 302.215L1314.15 351.964L1303.28 326.803L1352.48 302.215ZM1302.71 326.803L1247.79 353.68L1259.8 230.736L1302.71 326.803Z" fill="white" fill-opacity="0.15" stroke="white" stroke-opacity="0.15" stroke-width="0.068042" stroke-miterlimit="10"/>
<path d="M687.527 285.476C688.601 283.914 688.204 281.778 686.642 280.705C685.08 279.632 682.943 280.028 681.869 281.59C680.796 283.152 681.192 285.288 682.755 286.361C684.317 287.434 686.454 287.038 687.527 285.476Z" fill="white" fill-opacity="0.15" stroke="white" stroke-opacity="0.15" stroke-width="0.068042" stroke-miterlimit="10"/>
<path d="M60.5508 225.425C61.6243 223.864 61.228 221.728 59.6656 220.655C58.1032 219.581 55.9664 219.978 54.8929 221.539C53.8194 223.101 54.2158 225.237 55.7781 226.31C57.3405 227.383 59.4773 226.987 60.5508 225.425Z" fill="white" fill-opacity="0.15" stroke="white" stroke-opacity="0.15" stroke-width="0.068042" stroke-miterlimit="10"/>
<path d="M121.429 231.352C122.323 230.05 121.993 228.27 120.69 227.376C119.388 226.482 117.608 226.812 116.713 228.114C115.819 229.416 116.149 231.195 117.451 232.09C118.754 232.984 120.534 232.653 121.429 231.352Z" fill="white" fill-opacity="0.15" stroke="white" stroke-opacity="0.15" stroke-width="0.068042" stroke-miterlimit="10"/>
<path d="M76.348 346.457C77.4209 344.895 77.0238 342.759 75.4611 341.686C73.8983 340.614 71.7617 341.011 70.6888 342.573C69.6159 344.135 70.013 346.271 71.5757 347.343C73.1384 348.416 75.2751 348.019 76.348 346.457Z" fill="white" fill-opacity="0.15" stroke="white" stroke-opacity="0.15" stroke-width="0.068042" stroke-miterlimit="10"/>
<path d="M329.258 341.197C330.331 339.635 329.935 337.499 328.373 336.426C326.81 335.353 324.673 335.749 323.6 337.311C322.526 338.873 322.923 341.009 324.485 342.082C326.048 343.155 328.184 342.759 329.258 341.197Z" fill="white" fill-opacity="0.15" stroke="white" stroke-opacity="0.15" stroke-width="0.068042" stroke-miterlimit="10"/>
<path d="M429.217 324.703C430.112 323.402 429.782 321.622 428.48 320.727C427.178 319.833 425.397 320.163 424.503 321.465C423.608 322.766 423.938 324.546 425.24 325.44C426.542 326.335 428.323 326.005 429.217 324.703Z" fill="white" fill-opacity="0.15" stroke="white" stroke-opacity="0.15" stroke-width="0.068042" stroke-miterlimit="10"/>
<path d="M1263.22 232.451C1262.65 233.023 1262.08 233.595 1261.51 233.595C1260.36 234.166 1259.79 233.595 1258.65 233.595C1257.5 233.023 1256.93 232.451 1256.93 231.307C1256.36 230.164 1256.93 229.02 1257.5 227.876C1258.08 227.304 1258.65 226.733 1259.22 226.733C1260.36 226.161 1260.94 226.733 1262.08 226.733C1263.22 226.733 1263.8 227.876 1263.8 229.02C1263.8 230.164 1263.8 231.307 1263.22 232.451Z" fill="white" fill-opacity="0.15" stroke="white" stroke-opacity="0.15" stroke-width="0.068042" stroke-miterlimit="10"/>
<path d="M1120.79 385.701C1120.22 386.273 1119.65 386.845 1119.08 386.845C1117.93 387.417 1117.36 386.845 1116.21 386.845C1115.07 386.273 1114.5 385.701 1114.5 384.557C1113.93 383.414 1114.5 382.27 1115.07 381.126C1115.64 380.555 1116.21 379.983 1116.79 379.983C1118.5 379.411 1120.79 380.555 1121.36 382.27C1121.94 383.414 1121.94 384.557 1120.79 385.701Z" fill="white" fill-opacity="0.15" stroke="white" stroke-opacity="0.15" stroke-width="0.068042" stroke-miterlimit="10"/>
<path d="M958.897 286.203C958.325 286.775 957.753 287.347 957.181 287.347C955.464 287.918 953.176 286.775 952.604 285.059C952.032 283.916 952.604 282.772 953.176 281.628C953.748 281.057 954.32 280.485 954.892 280.485C956.609 279.913 958.897 281.057 959.469 282.772C960.041 283.916 960.041 285.059 958.897 286.203Z" fill="white" fill-opacity="0.15" stroke="white" stroke-opacity="0.15" stroke-width="0.068042" stroke-miterlimit="10"/>
<path d="M754.678 420.583C754.106 421.155 753.534 421.726 752.962 421.726C751.818 422.298 751.246 421.726 750.102 421.726C748.957 421.155 748.385 420.583 748.385 419.439C747.813 418.295 748.385 417.152 748.957 416.008C749.529 415.436 750.102 414.864 750.674 414.864C751.818 414.293 752.39 414.864 753.534 414.864C754.678 415.436 755.25 416.008 755.25 417.152C755.822 418.295 755.822 419.439 754.678 420.583Z" fill="white" fill-opacity="0.15" stroke="white" stroke-opacity="0.15" stroke-width="0.068042" stroke-miterlimit="10"/>
<path d="M501.834 381.699C501.262 382.271 500.69 382.843 500.118 382.843C498.402 383.414 496.114 382.271 495.542 380.555C494.97 379.412 495.542 378.268 496.114 377.124C496.686 376.553 497.258 375.981 497.83 375.981C498.974 375.409 499.546 375.981 500.69 375.981C501.834 376.553 502.406 377.124 502.406 378.268C502.406 379.412 502.406 380.555 501.834 381.699Z" fill="white" fill-opacity="0.15" stroke="white" stroke-opacity="0.15" stroke-width="0.068042" stroke-miterlimit="10"/>
<path d="M495.534 255.897C494.961 256.469 494.389 257.041 493.817 257.041C492.673 257.613 492.101 257.041 490.957 257.041C489.813 256.469 489.241 255.897 489.241 254.754C488.669 253.61 489.241 252.466 489.813 251.323C490.385 250.751 490.957 250.179 491.529 250.179C493.245 249.607 495.533 250.751 496.106 252.466C496.678 253.61 496.106 254.754 495.534 255.897Z" fill="white" fill-opacity="0.15" stroke="white" stroke-opacity="0.15" stroke-width="0.068042" stroke-miterlimit="10"/>
<path d="M351.377 206.719C350.805 207.29 350.233 207.862 349.661 207.862C348.517 208.434 347.945 207.862 346.801 207.862C345.657 207.29 345.085 206.719 345.085 205.575C344.513 204.431 345.085 203.288 345.657 202.144C346.229 201.572 346.801 201 347.373 201C348.517 200.428 349.089 201 350.233 201C351.377 201.572 351.949 202.144 351.949 203.288C352.521 205.003 351.949 206.147 351.377 206.719Z" fill="white" fill-opacity="0.15" stroke="white" stroke-opacity="0.15" stroke-width="0.068042" stroke-miterlimit="10"/>
<path d="M209.506 362.258C208.934 362.829 208.362 363.401 207.79 363.401C206.074 363.973 203.786 362.829 203.214 361.114C202.641 359.97 203.214 358.827 203.786 357.683C204.358 357.111 204.93 356.539 205.502 356.539C206.646 355.967 207.218 356.539 208.362 356.539C209.506 357.111 210.078 357.683 210.078 358.827C210.078 359.97 210.078 361.114 209.506 362.258Z" fill="white" fill-opacity="0.15" stroke="white" stroke-opacity="0.15" stroke-width="0.068042" stroke-miterlimit="10"/>
<path d="M1354.75 303.358C1354.18 303.93 1354.18 303.93 1353.61 304.502C1353.03 304.502 1352.46 304.502 1351.89 304.502C1351.32 304.502 1350.75 303.93 1350.75 303.358C1350.75 302.786 1350.75 301.643 1350.75 301.071C1350.75 300.499 1351.32 300.499 1351.89 299.927C1353.03 299.355 1354.75 299.927 1354.75 301.643C1355.32 301.643 1355.32 302.786 1354.75 303.358Z" fill="white" fill-opacity="0.15" stroke="white" stroke-opacity="0.15" stroke-width="0.068042" stroke-miterlimit="10"/>
<path d="M1139.1 316.509C1138.53 317.653 1137.38 318.224 1136.24 318.796C1134.52 319.368 1132.81 319.368 1131.66 318.796C1129.95 318.224 1129.37 317.081 1128.8 315.365C1128.23 313.65 1128.23 311.362 1129.37 309.647C1129.95 308.503 1131.09 307.932 1132.23 307.36C1135.67 306.216 1139.1 307.932 1140.24 311.362C1140.81 312.506 1140.24 314.793 1139.1 316.509Z" fill="white" fill-opacity="0.15" stroke="white" stroke-opacity="0.15" stroke-width="0.068042" stroke-miterlimit="10"/>
<path d="M912.553 372.551C911.981 373.122 911.409 373.694 910.837 373.694C909.121 374.266 906.832 373.122 906.26 371.407C905.688 370.263 906.26 369.12 906.832 367.976C907.405 367.404 907.977 366.832 908.549 366.832C910.265 366.261 912.553 367.404 913.125 369.12C913.125 370.263 913.125 371.407 912.553 372.551Z" fill="white" fill-opacity="0.15" stroke="white" stroke-opacity="0.15" stroke-width="0.068042" stroke-miterlimit="10"/>
<path d="M791.286 325.659C790.714 326.803 789.57 327.375 788.426 327.947C786.71 328.518 784.993 328.518 783.849 327.947C782.133 327.375 780.989 326.231 780.989 324.516C780.417 322.8 780.417 320.513 781.561 318.797C782.133 317.654 783.277 317.082 784.421 316.51C786.138 315.938 787.854 315.938 788.998 316.51C790.714 317.082 791.858 318.225 791.858 319.941C792.43 322.228 792.43 324.516 791.286 325.659Z" fill="white" fill-opacity="0.15" stroke="white" stroke-opacity="0.15" stroke-width="0.068042" stroke-miterlimit="10"/>
<path d="M1214.04 374.264C1213.47 374.836 1212.89 375.408 1212.32 375.408C1210.6 375.98 1208.32 374.836 1207.74 373.121C1207.17 371.977 1207.74 370.833 1208.32 369.69C1208.89 369.118 1209.46 368.546 1210.03 368.546C1211.18 367.974 1211.75 368.546 1212.89 368.546C1214.04 369.118 1214.61 369.69 1214.61 370.833C1215.18 371.977 1215.18 373.121 1214.04 374.264Z" fill="white" fill-opacity="0.15" stroke="white" stroke-opacity="0.15" stroke-width="0.068042" stroke-miterlimit="10"/>
<path d="M1303.35 416.239C1305.19 415.023 1305.71 412.54 1304.49 410.694C1303.27 408.848 1300.79 408.337 1298.94 409.552C1297.09 410.768 1296.58 413.251 1297.8 415.097C1299.02 416.943 1301.5 417.455 1303.35 416.239Z" fill="#1CACA5" fill-opacity="0.5"/>
<path d="M1239.01 303.829C1240.86 302.615 1241.37 300.133 1240.15 298.286C1238.94 296.439 1236.46 295.926 1234.61 297.141C1232.76 298.355 1232.25 300.837 1233.46 302.684C1234.68 304.531 1237.16 305.044 1239.01 303.829Z" fill="#1CACA5" fill-opacity="0.5"/>
<path d="M1345.56 258.827C1346.35 258.305 1346.57 257.241 1346.04 256.45C1345.52 255.659 1344.46 255.441 1343.67 255.963C1342.88 256.484 1342.66 257.548 1343.18 258.339C1343.7 259.13 1344.77 259.349 1345.56 258.827Z" fill="#1CACA5" fill-opacity="0.5"/>
<path d="M1246.13 190.818C1247.18 190.123 1247.47 188.705 1246.78 187.65C1246.08 186.595 1244.67 186.302 1243.61 186.997C1242.55 187.691 1242.26 189.109 1242.96 190.165C1243.65 191.22 1245.07 191.512 1246.13 190.818Z" fill="#1CACA5" fill-opacity="0.5"/>
<path d="M1211.22 47.1093C1212.28 46.4149 1212.57 44.9966 1211.88 43.9414C1211.18 42.8862 1209.76 42.5937 1208.71 43.2881C1207.65 43.9825 1207.36 45.4008 1208.05 46.456C1208.75 47.5112 1210.17 47.8037 1211.22 47.1093Z" fill="#1CACA5" fill-opacity="0.5"/>
<path d="M1189.5 150.772C1190.56 150.077 1190.85 148.658 1190.15 147.603C1189.46 146.548 1188.04 146.256 1186.99 146.951C1185.93 147.646 1185.64 149.064 1186.33 150.119C1187.03 151.174 1188.45 151.467 1189.5 150.772Z" fill="#1CACA5" fill-opacity="0.5"/>
<path d="M1282.03 188.798C1283.88 187.582 1284.39 185.1 1283.17 183.254C1281.96 181.407 1279.47 180.895 1277.63 182.111C1275.78 183.326 1275.27 185.808 1276.48 187.655C1277.7 189.502 1280.18 190.013 1282.03 188.798Z" fill="#1CACA5" fill-opacity="0.5"/>
<path d="M1289.68 264.506C1290.73 263.812 1291.03 262.393 1290.33 261.338C1289.64 260.283 1288.22 259.991 1287.16 260.685C1286.11 261.379 1285.81 262.798 1286.51 263.853C1287.2 264.908 1288.62 265.201 1289.68 264.506Z" fill="#1CACA5" fill-opacity="0.5"/>
<path d="M1252.52 347.523C1253.57 346.827 1253.87 345.409 1253.17 344.354C1252.47 343.299 1251.06 343.008 1250 343.704C1248.95 344.399 1248.65 345.818 1249.35 346.872C1250.05 347.927 1251.46 348.218 1252.52 347.523Z" fill="#1CACA5" fill-opacity="0.5"/>
<path d="M1210.32 400.216C1211.11 399.695 1211.33 398.632 1210.81 397.84C1210.29 397.049 1209.22 396.829 1208.43 397.35C1207.64 397.871 1207.42 398.935 1207.94 399.726C1208.46 400.518 1209.52 400.737 1210.32 400.216Z" fill="#1CACA5" fill-opacity="0.5"/>
<path d="M1083.76 388.058C1084.81 387.364 1085.11 385.945 1084.41 384.89C1083.72 383.835 1082.3 383.542 1081.24 384.237C1080.19 384.931 1079.9 386.35 1080.59 387.405C1081.28 388.46 1082.7 388.752 1083.76 388.058Z" fill="#1CACA5" fill-opacity="0.5"/>
<path d="M1029.54 231.907C1030.33 231.385 1030.55 230.321 1030.03 229.53C1029.51 228.739 1028.44 228.521 1027.65 229.042C1026.86 229.564 1026.64 230.628 1027.16 231.419C1027.69 232.21 1028.75 232.428 1029.54 231.907Z" fill="#1CACA5" fill-opacity="0.5"/>
<path d="M878.543 150.196C879.598 149.501 879.889 148.082 879.194 147.027C878.498 145.973 877.078 145.682 876.023 146.377C874.969 147.073 874.677 148.492 875.373 149.546C876.069 150.601 877.488 150.892 878.543 150.196Z" fill="#1CACA5" fill-opacity="0.5"/>
<path d="M823.945 214.683C825.001 213.989 825.295 212.571 824.601 211.515C823.907 210.46 822.488 210.166 821.432 210.86C820.376 211.554 820.082 212.972 820.776 214.028C821.47 215.083 822.889 215.377 823.945 214.683Z" fill="#1CACA5" fill-opacity="0.5"/>
<path d="M726.921 182.188C727.976 181.493 728.268 180.074 727.573 179.019C726.877 177.965 725.458 177.673 724.403 178.368C723.348 179.063 723.056 180.482 723.751 181.537C724.447 182.592 725.866 182.883 726.921 182.188Z" fill="#1CACA5" fill-opacity="0.5"/>
<path d="M714.162 41.0839C715.217 40.3894 715.51 38.9711 714.815 37.9159C714.12 36.8607 712.701 36.5682 711.646 37.2627C710.59 37.9571 710.298 39.3754 710.992 40.4306C711.687 41.4858 713.106 41.7783 714.162 41.0839Z" fill="#1CACA5" fill-opacity="0.5"/>
<path d="M1199.62 354.811C1200.68 354.117 1200.97 352.699 1200.28 351.644C1199.58 350.588 1198.16 350.295 1197.11 350.989C1196.05 351.683 1195.76 353.101 1196.45 354.156C1197.15 355.212 1198.57 355.505 1199.62 354.811Z" fill="#1CACA5" fill-opacity="0.5"/>
<path d="M1094.04 322.917C1095.1 322.223 1095.39 320.805 1094.69 319.749C1094 318.694 1092.58 318.402 1091.52 319.096C1090.47 319.791 1090.18 321.209 1090.87 322.264C1091.57 323.319 1092.98 323.612 1094.04 322.917Z" fill="#1CACA5" fill-opacity="0.5"/>
<path d="M1169.48 274.988C1170.53 274.293 1170.83 272.875 1170.13 271.82C1169.44 270.765 1168.02 270.473 1166.96 271.168C1165.91 271.863 1165.61 273.281 1166.31 274.336C1167 275.391 1168.42 275.683 1169.48 274.988Z" fill="#1CACA5" fill-opacity="0.5"/>
<path d="M1225.77 243.454C1226.83 242.76 1227.12 241.342 1226.42 240.286C1225.73 239.23 1224.31 238.937 1223.26 239.631C1222.2 240.324 1221.91 241.743 1222.6 242.798C1223.29 243.854 1224.71 244.147 1225.77 243.454Z" fill="#1CACA5" fill-opacity="0.5"/>
<path d="M1152.9 204.067C1155.27 202.504 1155.93 199.312 1154.37 196.938C1152.8 194.564 1149.61 193.907 1147.23 195.47C1144.86 197.034 1144.2 200.225 1145.77 202.599C1147.33 204.973 1150.52 205.63 1152.9 204.067Z" fill="#1CACA5" fill-opacity="0.5"/>
<path d="M1124.97 90.0202C1126.02 89.3248 1126.32 87.9061 1125.62 86.8516C1124.92 85.797 1123.5 85.5059 1122.45 86.2013C1121.39 86.8967 1121.1 88.3153 1121.8 89.3699C1122.49 90.4245 1123.91 90.7156 1124.97 90.0202Z" fill="#1CACA5" fill-opacity="0.5"/>
<path d="M1076.45 180.599C1077.51 179.905 1077.8 178.487 1077.11 177.431C1076.41 176.376 1075 176.082 1073.94 176.776C1072.88 177.47 1072.59 178.888 1073.28 179.944C1073.98 180.999 1075.4 181.293 1076.45 180.599Z" fill="#1CACA5" fill-opacity="0.5"/>
<path d="M1102.47 262.213C1103.52 261.519 1103.81 260.101 1103.12 259.045C1102.42 257.99 1101.01 257.698 1099.95 258.392C1098.89 259.087 1098.6 260.505 1099.3 261.56C1099.99 262.615 1101.41 262.908 1102.47 262.213Z" fill="#1CACA5" fill-opacity="0.5"/>
<path d="M1013.49 167.932C1015.6 166.544 1016.18 163.707 1014.79 161.596C1013.41 159.485 1010.57 158.9 1008.46 160.289C1006.34 161.678 1005.76 164.515 1007.15 166.625C1008.54 168.736 1011.38 169.321 1013.49 167.932Z" fill="#1CACA5" fill-opacity="0.5"/>
<path d="M955.115 83.1389C956.171 82.4443 956.463 81.0258 955.768 79.9706C955.073 78.9154 953.654 78.6231 952.599 79.3176C951.543 80.0122 951.251 81.4306 951.946 82.4858C952.64 83.541 954.059 83.8334 955.115 83.1389Z" fill="#1CACA5" fill-opacity="0.5"/>
<path d="M886.547 70.3685C887.339 69.8475 887.558 68.7837 887.037 67.9924C886.516 67.2011 885.451 66.9819 884.66 67.5029C883.868 68.0239 883.649 69.0878 884.17 69.8791C884.691 70.6704 885.756 70.8895 886.547 70.3685Z" fill="#1CACA5" fill-opacity="0.5"/>
<path d="M1009.26 298.596C1010.85 297.554 1011.28 295.427 1010.24 293.844C1009.2 292.262 1007.07 291.823 1005.49 292.865C1003.9 293.907 1003.47 296.035 1004.51 297.617C1005.55 299.2 1007.68 299.638 1009.26 298.596Z" fill="#1CACA5" fill-opacity="0.5"/>
<path d="M961.373 153.007C962.428 152.312 962.721 150.894 962.026 149.839C961.331 148.784 959.912 148.491 958.857 149.186C957.801 149.88 957.509 151.299 958.203 152.354C958.898 153.409 960.317 153.701 961.373 153.007Z" fill="#1CACA5" fill-opacity="0.5"/>
<path d="M337.064 144.836C337.636 145.408 337.636 145.408 338.208 145.98C338.78 145.98 339.352 145.98 339.925 145.98C340.497 145.98 341.069 145.408 341.069 144.836C341.069 144.264 341.069 143.12 341.069 142.549C341.069 141.977 340.497 141.977 339.925 141.405C338.78 140.833 337.064 141.405 336.492 143.12C336.492 143.12 336.492 143.692 337.064 144.836Z" fill="#1CACA5" fill-opacity="0.5"/>
<path d="M454.899 197.444C455.471 198.016 455.471 198.016 456.043 198.588C457.187 199.16 458.904 198.588 459.476 196.872C459.476 196.301 459.476 195.157 459.476 194.585C458.904 194.013 458.904 194.013 458.331 193.441C457.759 193.441 457.187 193.441 456.615 193.441C456.043 193.441 455.471 194.013 455.471 194.585C454.327 195.729 454.327 196.872 454.899 197.444Z" fill="#1CACA5" fill-opacity="0.5"/>
<path d="M393.703 295.799C394.276 296.371 394.276 296.371 394.848 296.943C395.42 296.943 395.992 296.943 396.564 296.943C397.136 296.943 397.708 296.371 397.708 295.799C397.708 295.227 397.708 294.084 397.708 293.512C397.136 292.94 397.136 292.94 396.564 292.368C395.992 292.368 395.42 292.368 394.848 292.368C394.276 292.368 393.703 292.94 393.703 293.512C393.131 294.084 393.703 295.227 393.703 295.799Z" fill="#1CACA5" fill-opacity="0.5"/>
<path d="M340.492 254.056C340.492 254.628 341.064 254.628 341.636 254.628C342.208 254.628 342.78 254.628 343.352 254.628C343.924 254.628 343.924 254.056 344.496 253.485C344.496 252.913 344.496 252.341 344.496 251.769C344.496 251.197 343.924 251.197 343.352 251.197C342.78 251.197 342.208 251.197 341.636 251.197C341.064 251.197 341.064 251.769 340.492 252.341C340.492 252.913 340.492 253.485 340.492 254.056Z" fill="#1CACA5" fill-opacity="0.5"/>
<path d="M246.109 165.994C246.681 166.566 246.681 166.566 247.253 167.138C247.825 167.138 248.397 167.138 248.969 167.138C249.541 167.138 250.113 166.566 250.113 165.994C250.113 165.423 250.113 164.279 250.113 163.707C249.541 163.135 249.541 163.135 248.969 162.563C248.397 162.563 247.825 162.563 247.253 162.563C246.681 162.563 246.109 163.135 246.109 163.707C245.537 164.851 245.537 165.423 246.109 165.994Z" fill="#1CACA5" fill-opacity="0.5"/>
<path d="M514.4 292.37C514.972 292.942 514.972 292.942 515.544 293.514C516.116 293.514 516.688 293.514 517.26 293.514C517.832 293.514 518.405 292.942 518.405 292.37C518.405 291.798 518.405 290.655 518.405 290.083C517.833 289.511 517.832 289.511 517.26 288.939C516.116 288.367 514.4 288.939 513.828 290.655C513.828 290.655 513.828 291.226 514.4 292.37Z" fill="#1CACA5" fill-opacity="0.5"/>
<path d="M628.246 386.72C628.246 387.292 628.818 387.292 629.391 387.292C629.963 387.292 630.535 387.292 631.107 387.292C631.679 387.292 631.679 386.72 632.251 386.149C632.251 385.577 632.251 385.005 632.251 384.433C632.251 383.861 631.679 383.861 631.107 383.861C630.535 383.861 629.963 383.861 629.391 383.861C628.818 383.861 628.818 384.433 628.246 385.005C627.674 385.577 628.246 386.149 628.246 386.72Z" fill="#1CACA5" fill-opacity="0.5"/>
<path d="M583.627 290.652C584.199 291.224 584.199 291.224 584.771 291.796C585.343 291.796 585.915 291.796 586.487 291.796C587.059 291.796 587.631 291.224 587.631 290.652C587.631 290.08 587.631 288.937 587.631 288.365C587.059 287.793 587.059 287.793 586.487 287.221C585.343 286.649 583.627 287.221 583.055 288.937C583.055 288.937 583.055 290.08 583.627 290.652Z" fill="#1CACA5" fill-opacity="0.5"/>
<path d="M486.939 316.385C487.511 316.956 488.083 317.528 489.227 318.1C490.372 318.672 491.516 318.672 492.66 318.1C493.804 317.528 494.376 316.956 494.948 315.813C495.52 314.669 495.52 312.954 494.376 312.382C493.804 311.81 493.232 311.238 492.088 310.666C490.944 310.094 489.799 310.094 488.655 310.666C487.511 311.238 486.939 311.81 486.367 312.953C486.367 314.097 486.367 315.241 486.939 316.385Z" fill="#1CACA5" fill-opacity="0.5"/>
<path d="M454.338 256.343C454.91 256.915 454.91 256.915 455.482 257.486C456.054 257.486 456.626 257.486 457.198 257.486C457.77 257.486 458.342 256.915 458.342 256.343C458.342 255.771 458.342 254.627 458.342 254.055C457.77 253.484 457.77 253.484 457.198 252.912C456.054 252.34 454.338 252.912 453.766 254.627C453.766 255.199 454.338 255.771 454.338 256.343Z" fill="#1CACA5" fill-opacity="0.5"/>
<path d="M414.863 170.569C415.435 171.141 416.007 172.284 417.151 172.284C418.295 172.856 419.439 172.856 420.583 172.284C421.728 171.712 422.872 170.569 422.872 169.425C423.444 168.281 423.444 166.566 422.3 165.422C421.728 164.85 421.155 163.707 420.011 163.707C417.723 162.563 414.863 164.279 413.719 166.566C413.719 168.281 413.719 169.425 414.863 170.569Z" fill="#1CACA5" fill-opacity="0.5"/>
<path d="M418.873 101.948C419.445 102.52 419.445 102.52 420.017 103.092C420.589 103.092 421.161 103.092 421.733 103.092C422.305 103.092 422.877 102.52 422.877 101.948C422.877 101.376 422.877 100.233 422.877 99.6608C422.305 99.089 422.305 99.089 421.733 98.5172C420.589 97.9453 418.873 98.5172 418.301 100.233C418.301 100.233 418.301 100.805 418.873 101.948Z" fill="#1CACA5" fill-opacity="0.5"/>
<path d="M528.695 37.332C529.267 37.9038 529.267 37.9038 529.839 38.4757C530.983 39.0475 532.699 38.4757 533.271 36.7602C533.271 36.1883 533.271 35.0447 533.271 34.4728C532.699 33.901 532.699 33.901 532.127 33.3292C530.983 32.7574 529.267 33.3292 528.695 35.0447C528.123 35.6165 528.123 36.1883 528.695 37.332Z" fill="#1CACA5" fill-opacity="0.5"/>
<path d="M664.285 129.968C664.857 130.54 664.857 130.54 665.429 131.112C666.001 131.112 666.573 131.112 667.145 131.112C667.717 131.112 668.289 130.54 668.289 129.968C668.289 129.396 668.289 128.253 668.289 127.681C667.717 127.109 667.717 127.109 667.145 126.537C666.573 126.537 666.001 126.537 665.429 126.537C664.857 126.537 664.285 127.109 664.285 127.681C663.712 128.824 663.712 129.396 664.285 129.968Z" fill="#1CACA5" fill-opacity="0.5"/>
<path d="M835.317 107.666C835.889 108.238 835.889 108.238 836.461 108.81C837.605 109.382 839.321 108.81 839.893 107.095C839.893 106.523 839.893 105.379 839.893 104.807C839.321 104.235 839.321 104.235 838.749 103.664C838.177 103.664 837.605 103.664 837.033 103.664C836.461 103.664 835.889 104.235 835.889 104.807C834.745 105.951 834.745 107.095 835.317 107.666Z" fill="#1CACA5" fill-opacity="0.5"/>
<path d="M840.47 23.0365C841.043 23.6084 841.043 23.6084 841.615 24.1802C842.187 24.1802 842.759 24.1802 843.331 24.1802C843.903 24.1802 844.475 23.6084 844.475 23.0365C844.475 22.4647 844.475 21.321 844.475 20.7492C843.903 20.1774 843.903 20.1774 843.331 19.6055C842.187 19.0337 840.471 19.6056 839.898 21.321C840.471 21.321 840.47 21.8929 840.47 23.0365Z" fill="#1CACA5" fill-opacity="0.5"/>
<path d="M1032.11 97.9467C1032.69 98.5185 1032.69 98.5185 1033.26 99.0903C1034.4 99.6622 1036.12 99.0903 1036.69 97.3748C1036.69 96.803 1036.69 95.6593 1036.69 95.0875C1036.12 94.5157 1036.12 94.5157 1035.55 93.9438C1034.97 93.9438 1034.4 93.9438 1033.83 93.9438C1033.26 93.9438 1032.69 94.5157 1032.69 95.0875C1031.54 96.803 1031.54 97.3748 1032.11 97.9467Z" fill="#1CACA5" fill-opacity="0.5"/>
<path d="M710.619 373.568C711.191 374.14 711.191 374.14 711.763 374.712C712.335 374.712 712.907 374.712 713.479 374.712C714.051 374.712 714.623 374.14 714.623 373.568C714.623 372.996 714.623 371.853 714.623 371.281C714.051 370.709 714.051 370.709 713.479 370.137C712.335 369.565 710.619 370.137 710.047 371.853C710.047 372.425 710.047 372.996 710.619 373.568Z" fill="#1CACA5" fill-opacity="0.5"/>
<path d="M630.533 344.978C631.105 345.55 631.677 346.121 632.249 346.121C633.393 346.693 633.965 346.693 635.109 346.121C636.254 345.55 636.826 344.978 636.826 344.406C637.398 343.262 636.826 342.119 636.254 340.975C635.681 340.403 635.109 339.831 634.537 339.831C632.821 339.259 630.533 339.831 629.961 342.119C629.961 343.262 629.961 344.406 630.533 344.978Z" fill="#1CACA5" fill-opacity="0.5"/>
<path d="M454.906 131.685C454.906 132.257 455.478 132.257 456.05 132.257C457.194 132.829 457.767 132.257 458.339 131.114C458.339 130.542 458.339 129.97 458.339 129.398C458.339 128.826 457.767 128.826 457.194 128.826C456.622 128.826 456.05 128.826 456.05 128.826C455.478 128.826 455.478 129.398 454.906 129.97C454.906 130.542 454.906 131.114 454.906 131.685Z" fill="#1CACA5" fill-opacity="0.5"/>
<path d="M262.697 43.0498L263.269 43.6216C263.841 43.6216 263.841 43.6216 264.413 43.6216C264.985 43.6216 264.985 43.0498 264.985 42.478C264.985 41.9061 264.985 41.3343 264.985 40.7625C264.985 40.1906 264.413 40.1906 264.413 40.1906C263.841 39.6188 262.697 40.1906 262.125 41.3343C262.125 42.478 262.125 43.0498 262.697 43.0498Z" fill="#1CACA5" fill-opacity="0.5"/>
<path d="M407.422 55.059C407.994 55.6308 408.566 56.2026 409.138 56.7744C410.283 57.3463 411.427 57.3463 411.999 56.7744C413.143 56.2026 413.715 55.6308 414.287 54.4871C414.859 53.3435 414.859 51.628 413.715 51.0561C413.143 50.4843 412.571 49.9125 411.999 49.3406C409.711 48.7688 407.422 49.9125 406.85 51.628C406.278 52.7716 406.85 53.9153 407.422 55.059Z" fill="#1CACA5" fill-opacity="0.5"/>
<path d="M559.019 95.6596C559.591 96.2315 559.591 96.2315 560.163 96.8033C561.307 97.3751 563.023 96.8033 563.595 95.0878C563.595 94.516 563.595 93.3723 563.595 92.8005C563.023 92.2286 563.023 92.2287 562.451 91.6568C561.307 91.085 559.591 91.6568 559.019 93.3723C558.447 93.9441 558.447 95.0878 559.019 95.6596Z" fill="#1CACA5" fill-opacity="0.5"/>
<path d="M641.389 65.9236C641.961 66.4954 642.533 67.0672 643.677 67.639C644.822 68.2109 645.966 68.2109 647.11 67.639C648.254 67.0672 648.826 66.4954 649.398 65.3517C649.97 64.2081 649.97 62.4926 648.826 61.9207C648.254 61.3489 647.682 60.7771 646.538 60.2052C645.394 59.6334 644.249 59.6334 643.105 60.2052C641.961 60.7771 641.389 61.3489 640.817 62.4926C640.245 63.6362 640.245 64.7799 641.389 65.9236Z" fill="#1CACA5" fill-opacity="0.5"/>
<path d="M765.525 154.558C766.097 155.13 766.669 155.702 767.241 156.274C768.386 156.846 768.958 156.846 770.102 156.274C771.246 155.702 771.818 155.13 771.818 153.987C772.39 152.843 771.818 151.699 771.246 150.556C770.674 149.984 770.102 149.412 769.53 148.84C767.813 148.268 765.525 148.84 764.953 151.127C764.953 152.271 764.953 153.987 765.525 154.558Z" fill="#1CACA5" fill-opacity="0.5"/>
<path d="M355.944 92.8007C356.516 93.3725 356.516 93.3725 357.088 93.9443C358.232 94.5162 359.948 93.9443 360.52 92.2288C360.52 91.657 360.52 90.5133 360.52 89.9415C359.948 89.3697 359.948 89.3697 359.376 88.7979C358.804 88.7979 358.232 88.7979 357.66 88.7979C357.088 88.7979 356.516 89.3697 356.516 89.9415C355.372 91.0852 355.944 92.2288 355.944 92.8007Z" fill="#1CACA5" fill-opacity="0.5"/>
<g opacity="0.25">
<path opacity="0.25" d="M1188.29 287.348L1144.25 414.866L1075.6 362.258V361.686L1075.03 362.258L991.509 383.415L914.854 335.953L825.041 395.424L761.544 370.835L706.627 408.576L670.587 335.382V335.953L617.386 440.027L502.976 422.3L497.827 309.077L367.972 265.046L367.399 264.475V265.046L239.832 404.573L161.461 287.348L148.303 320.514L106.544 282.201L5.86235 330.807L31.6047 470.334L-91.9586 516.652L-97.1071 556.68L-180.055 611.576L-93.1027 648.745L-57.6355 732.232L-60.4957 784.841L-125.71 820.866L-130.286 988.985V989.556L-64.5001 863.182L23.0239 864.897L128.282 736.807L167.753 790.559V791.131L205.509 689.917L271.295 672.19L327.356 511.506L520.71 565.83L651.138 524.658L659.718 446.889L731.797 457.754L825.041 395.424L873.094 413.723L957.186 391.993L1011.53 464.615L1009.81 552.106L1029.84 585.272L1008.67 631.018L834.766 673.334L769.552 744.241L663.151 781.41H662.579L772.985 801.424L808.452 727.658L895.404 690.489L961.19 708.787L978.924 679.624L1088.19 684.77L1056.15 631.018H1160.84H1161.41L1160.84 630.446L1288.98 514.937H1289.55L1288.98 514.365L1236.35 395.424L1271.24 350.249L1271.81 349.677L1226.62 371.979L1188.29 287.348ZM761.544 371.407L731.225 457.182L707.199 408.576L761.544 371.407ZM706.627 408.576L659.146 441.17L670.587 336.525L706.627 408.576ZM670.587 336.525L659.146 441.17L652.854 445.173L617.386 439.455L670.587 336.525ZM659.146 441.742L658.574 446.317L653.426 445.745L659.146 441.742ZM22.4519 864.325L-64.5001 862.61L-3.29048 804.855L22.4519 864.325ZM-64.5001 862.038L-16.4477 788.272L-3.86255 804.855L-64.5001 862.038ZM484.098 479.483L473.229 452.607L503.548 422.3L510.413 480.627L484.098 479.483ZM509.841 481.77L519.565 565.258L484.098 480.055L509.841 481.77ZM55.0589 636.737L81.9453 540.097L145.443 621.869L55.0589 636.737ZM55.0589 636.737L-18.7359 592.706L81.3733 538.953L81.9453 539.525L55.0589 636.737ZM94.5305 488.632L81.3733 538.953L32.1768 470.906L94.5305 488.632ZM129.426 498.354L81.3733 538.953L94.5305 488.061L129.426 498.354ZM95.1025 488.061L120.273 390.849L194.64 443.458L129.998 498.354L95.1025 488.061ZM129.998 498.354L182.055 513.221L81.9453 539.525L129.998 498.354ZM129.998 498.354L194.64 443.458L212.373 456.038L182.055 512.649L129.998 498.354ZM194.64 443.458L239.26 405.717L212.373 456.038L194.64 443.458ZM239.832 405.145L269.006 495.494L212.945 456.038L239.832 405.145ZM239.832 405.145L315.343 431.449L269.579 495.494L239.832 405.145ZM194.64 442.886L120.845 390.849L239.832 405.145L194.64 442.886ZM94.5305 488.061L31.6047 470.334L119.701 390.849L94.5305 488.061ZM81.3733 538.953L7.57851 529.232L31.6047 470.906L81.3733 538.953ZM80.8012 539.525L-19.308 592.706L7.00645 529.232L80.8012 539.525ZM-18.7359 592.706L-44.4783 522.37L7.57851 529.232L-18.7359 592.706ZM-19.308 592.706L-70.2206 538.953L-45.0503 522.37L-19.308 592.706ZM55.0589 637.308L-4.43459 660.182L-18.1638 593.849L55.0589 637.308ZM54.4868 637.308L0.14183 683.055L-5.00665 659.61L54.4868 637.308ZM55.0589 637.308L13.299 743.097L0.14183 683.627L55.0589 637.308ZM81.9453 540.097V539.525L182.627 513.221L145.443 621.869L81.9453 540.097ZM212.945 456.038L269.006 495.494L182.627 512.649L212.945 456.038ZM315.343 431.449L341.657 440.599L337.081 479.483L269.006 496.066L315.343 431.449ZM315.343 431.449L347.378 386.846L341.085 440.599L315.343 431.449ZM341.657 440.599L365.683 449.176L337.653 479.483L341.657 440.599ZM341.657 440.599L347.95 386.275L409.731 376.553L416.596 394.852L365.683 449.176L341.657 440.599ZM472.657 452.607L438.906 371.407L502.976 422.3L472.657 452.607ZM472.657 453.179L448.631 477.768L439.478 372.551L472.657 453.179ZM409.731 375.982L438.334 371.407L416.596 394.28L409.731 375.982ZM416.596 394.852L448.059 477.196L366.255 448.604L416.596 394.852ZM417.168 394.852L438.906 371.979L448.059 477.196L417.168 394.852ZM472.657 453.179L483.526 479.483L448.059 477.196L472.657 453.179ZM502.976 422.872L592.788 486.345L509.841 481.199L502.976 422.872ZM438.906 371.407L409.731 375.982L367.972 265.618L501.832 421.728L438.906 371.407ZM409.731 375.982L347.95 385.703L367.972 265.618L409.731 375.982ZM347.95 385.703L315.343 430.877L239.832 404.573L367.399 265.046L347.95 385.703ZM120.273 390.849L148.303 321.086L239.26 405.145L120.273 390.849ZM32.1768 470.334L73.3645 366.261L120.273 390.849L32.1768 470.334ZM7.57851 529.232L-44.4783 522.37L32.1768 470.906L7.57851 529.232ZM-70.7927 538.953L-91.3866 517.224L-45.6224 522.37L-70.7927 538.953ZM-70.7927 538.953L-81.6617 545.815L-91.9586 517.224L-70.7927 538.953ZM-70.7927 539.525L-19.308 593.277L-60.4957 605.858L-81.0896 546.387L-70.7927 539.525ZM-19.308 593.277L-5.57869 659.61L-38.1857 671.618L-61.0678 605.858L-19.308 593.277ZM-37.6136 671.618L-105.116 619.582L-61.0678 605.858L-37.6136 671.618ZM-38.1857 671.618L-93.1027 648.173L-105.116 620.154L-38.1857 671.618ZM-37.6136 672.19L-5.57869 660.182L-0.430222 683.627L-18.7359 699.066L-37.6136 672.19ZM0.14183 683.627L12.727 743.669L-18.1638 699.638L0.14183 683.627ZM12.727 744.241L-3.29048 804.283L-15.8756 787.7L12.727 744.241ZM-15.8756 787.7L-30.749 768.258L12.1549 744.241L-15.8756 787.7ZM12.727 743.669L88.81 721.939L-3.29048 804.283L12.727 743.669ZM12.727 743.669L55.0589 637.308L105.972 707.072L89.382 721.939L12.727 743.669ZM55.6309 637.308L129.426 685.914L106.544 706.5L55.6309 637.308ZM105.972 707.072L111.692 715.077L89.382 721.368L105.972 707.072ZM105.972 707.072L128.854 686.486L154.024 703.069L111.692 715.077L105.972 707.072ZM154.596 703.641L127.71 736.807L112.264 715.649L154.596 703.641ZM154.596 703.069L129.426 686.486L150.592 667.615L154.596 703.069ZM150.592 667.044L242.692 584.7L155.168 703.069L150.592 667.044ZM129.426 685.914L55.6309 636.737L145.443 621.869L150.592 667.044L129.426 685.914ZM182.627 513.221L269.006 496.066L146.015 621.869L182.627 513.221ZM337.081 479.483L325.64 511.506L269.006 495.494L337.081 479.483ZM366.255 449.176L448.059 477.768L337.653 479.483L366.255 449.176ZM448.631 477.768L484.098 480.055L519.565 565.258L448.631 477.768ZM509.841 481.77L592.788 486.917L519.565 565.83L509.841 481.77ZM652.854 445.745L593.932 486.345L617.386 440.027L652.854 445.745ZM593.36 486.345L503.548 422.872L617.386 440.599L593.36 486.345ZM502.976 422.3L368.544 265.618L497.827 309.077L502.976 422.3ZM161.461 287.92L239.26 404.573L148.303 320.514L161.461 287.92ZM148.303 320.514L120.273 390.277L73.3645 365.689L106.544 281.63L148.303 320.514ZM72.7925 366.261L5.86235 331.379L105.972 282.201L72.7925 366.261ZM5.86235 331.379L72.7925 366.261L31.6047 470.334L5.86235 331.379ZM-45.0503 522.37L-91.3866 517.224L31.0327 471.477L-45.0503 522.37ZM-91.9586 517.224L-81.6617 546.387L-97.1071 556.68L-91.9586 517.224ZM-97.1071 556.68L-81.6617 546.387L-61.0678 605.858L-105.116 619.582L-97.1071 556.68ZM-105.116 619.582L-179.483 611.004L-97.1071 556.68L-105.116 619.582ZM-179.483 611.576L-105.688 620.154L-93.6748 648.173L-179.483 611.576ZM-93.1027 648.745L-37.6136 672.19L-18.7359 699.066L-57.6355 731.661L-93.1027 648.745ZM-57.6355 732.232L-18.7359 699.638L12.727 744.241L-30.749 768.258L-57.6355 732.232ZM-57.6355 732.232L-30.749 767.686L-60.4957 784.269L-57.6355 732.232ZM-60.4957 784.841L-30.749 768.258L-15.8756 787.7L-64.5001 862.038L-60.4957 784.841ZM-125.71 820.866L-61.0678 784.841L-65.0722 862.61L-125.71 820.866ZM-125.71 820.866L-65.0722 862.61L-65.6442 863.182L-130.286 988.413L-125.71 820.866ZM22.4519 864.325L-3.29048 804.855L89.382 721.939L112.264 715.649L127.71 736.807L22.4519 864.325ZM127.71 736.807L154.596 703.641L166.609 790.559L127.71 736.807ZM167.181 789.987L155.168 703.069L204.365 689.917L167.181 789.987ZM155.168 703.069L243.264 585.272L204.365 689.917L155.168 703.069ZM204.937 689.917L243.836 584.128V583.556L150.592 667.044L145.443 622.441L269.006 496.066L270.151 672.19L204.937 689.917ZM270.151 671.618L269.006 496.066L325.64 512.077L270.151 671.618ZM337.653 479.483L448.631 477.768L520.137 565.83L326.212 511.506L337.653 479.483ZM649.993 524.086L520.137 565.258L593.36 486.917L652.854 445.745L658.574 446.317L649.993 524.086ZM659.718 441.17L707.199 408.576L731.225 457.182L659.146 446.317L659.718 441.17ZM731.225 457.182L761.544 370.835L824.469 395.424L731.225 457.182ZM1289.55 516.652L1169.42 485.773L1195.73 451.463L1289.55 516.652ZM1064.16 581.269L1093.91 554.393L1161.41 632.162L1064.16 581.269ZM1064.16 581.269L1038.42 567.545L1061.87 516.652L1093.91 553.821L1064.16 581.269ZM1173.99 436.024L1169.42 485.201L1145.39 416.01L1173.99 436.024ZM1012.1 465.759L1061.3 472.049L1061.87 516.652L1012.1 465.759ZM1012.1 465.187L1060.73 446.889V471.477L1012.1 465.187ZM1060.73 446.889L1144.25 415.438L1168.27 485.201L1060.73 471.477V446.889ZM1144.25 415.438L1060.73 446.889V425.731L1075.6 362.258L1144.25 415.438ZM1060.73 425.731L1042.99 414.866L1075.03 362.83L1060.73 425.731ZM1060.73 425.731L1012.1 464.615L1042.99 414.866L1060.73 425.731ZM1060.73 426.303V446.889L1012.1 465.187L1060.73 426.303ZM1061.3 516.652L1009.81 552.677L1011.53 465.759L1061.3 516.652ZM1061.3 517.224L1037.84 567.545L1009.81 552.677L1061.3 517.224ZM1061.87 516.652L1061.3 471.477L1168.84 485.201L1093.91 553.821L1061.87 516.652ZM1168.84 485.201L1173.42 436.024L1195.16 450.892L1168.84 485.201ZM1173.99 436.024L1177.43 399.427L1226.62 374.838L1236.92 397.711L1195.73 450.892L1173.99 436.024ZM1173.99 435.452L1144.82 415.438L1177.43 399.427L1173.99 435.452ZM1144.82 415.438L1188.29 289.063L1177.43 399.427L1144.82 415.438ZM1075.03 362.258L1042.99 414.294L992.653 383.415L1075.03 362.258ZM915.426 336.525L991.509 383.415L957.186 391.993L915.426 336.525ZM825.614 395.424L914.854 336.525L873.094 413.723L825.614 395.424ZM873.094 413.723L914.854 336.525L956.614 392.565L873.094 413.723ZM957.186 392.565L992.081 383.415L1042.99 414.866L1012.1 465.187L957.186 392.565ZM1009.81 553.249L1037.84 568.117L1029.26 586.415L1009.81 553.249ZM1029.84 586.415L1038.42 568.117L1064.16 581.269L1040.13 602.999L1029.84 586.415ZM1039.56 603.57L1008.67 631.59L1029.26 586.415L1039.56 603.57ZM1009.24 631.59L1040.13 603.57L1056.72 632.162L1009.24 631.59ZM663.151 782.554L768.98 745.384L772.985 801.996L663.151 782.554ZM772.985 801.996L768.98 745.384L807.88 728.801L772.985 801.996ZM769.552 744.813L834.194 674.477L808.452 728.23L769.552 744.813ZM808.452 728.23L834.194 674.477L894.832 691.632L808.452 728.23ZM835.338 674.477L1008.1 632.162L927.439 677.908L895.976 691.061L835.338 674.477ZM927.439 678.48L961.19 709.931L895.976 691.632L927.439 678.48ZM961.762 709.931L928.011 678.48L979.496 680.768L961.762 709.931ZM927.439 677.908L1008.1 632.162L978.924 680.196L927.439 677.908ZM1008.67 632.162L1088.19 685.914L979.496 680.768L1008.67 632.162ZM1088.19 685.914L1008.67 632.162H1056.15L1088.19 685.914ZM1040.13 603.57L1064.16 581.269L1161.41 632.162H1057.29L1040.13 603.57ZM1093.91 553.821L1168.84 485.201L1161.41 632.162L1093.91 553.821ZM1168.84 485.773L1289.55 517.224L1161.41 632.162L1168.84 485.773ZM1289.55 516.652L1195.73 450.892L1236.92 397.711L1289.55 516.652ZM1271.81 352.537L1236.92 397.139L1227.19 374.838L1271.81 352.537ZM1226.62 374.838L1177.43 399.427L1188.29 289.063L1226.62 374.838Z" fill="#999999" stroke="#999999" stroke-width="0.068042" stroke-miterlimit="10"/>
<g opacity="0.25">
<path opacity="0.25" d="M8.84052 333.13C9.91325 331.567 9.51585 329.431 7.95292 328.359C6.38998 327.287 4.25336 327.684 3.18063 329.246C2.1079 330.809 2.50529 332.944 4.06822 334.017C5.63116 335.089 7.76779 334.692 8.84052 333.13Z" fill="#999999" stroke="#999999" stroke-width="0.068042" stroke-miterlimit="10"/>
<path opacity="0.25" d="M673.516 338.113C674.589 336.551 674.192 334.415 672.629 333.343C671.066 332.27 668.929 332.667 667.856 334.23C666.784 335.792 667.181 337.928 668.744 339C670.307 340.072 672.444 339.675 673.516 338.113Z" fill="#999999" stroke="#999999" stroke-width="0.068042" stroke-miterlimit="10"/>
<path opacity="0.25" d="M109.485 283.805C110.558 282.243 110.161 280.107 108.598 279.034C107.036 277.962 104.899 278.358 103.826 279.921C102.753 281.483 103.15 283.619 104.712 284.691C106.275 285.764 108.412 285.367 109.485 283.805Z" fill="#999999" stroke="#999999" stroke-width="0.068042" stroke-miterlimit="10"/>
<path opacity="0.25" d="M163.201 288.667C163.916 287.626 163.652 286.202 162.61 285.487C161.569 284.771 160.144 285.036 159.429 286.077C158.713 287.118 158.977 288.542 160.019 289.257C161.06 289.973 162.485 289.709 163.201 288.667Z" fill="#999999" stroke="#999999" stroke-width="0.068042" stroke-miterlimit="10"/>
<path opacity="0.25" d="M123.184 392.628C124.257 391.065 123.86 388.929 122.297 387.857C120.734 386.785 118.597 387.182 117.524 388.744C116.452 390.307 116.849 392.443 118.412 393.515C119.975 394.587 122.112 394.19 123.184 392.628Z" fill="#999999" stroke="#999999" stroke-width="0.068042" stroke-miterlimit="10"/>
<path opacity="0.25" d="M350.507 387.67C351.581 386.109 351.186 383.973 349.624 382.899C348.063 381.825 345.926 382.22 344.851 383.782C343.777 385.343 344.172 387.479 345.734 388.553C347.296 389.627 349.433 389.231 350.507 387.67Z" fill="#999999" stroke="#999999" stroke-width="0.068042" stroke-miterlimit="10"/>
<path opacity="0.25" d="M440.709 372.52C441.424 371.478 441.16 370.054 440.118 369.339C439.076 368.624 437.651 368.888 436.936 369.93C436.221 370.971 436.485 372.395 437.527 373.11C438.569 373.825 439.993 373.561 440.709 372.52Z" fill="#999999" stroke="#999999" stroke-width="0.068042" stroke-miterlimit="10"/>
<path opacity="0.25" d="M1191.14 290.208C1190.57 290.78 1190 291.351 1189.43 291.351C1188.86 291.923 1187.71 291.351 1187.14 291.351C1186.57 290.78 1186 290.208 1185.42 289.636C1184.85 288.492 1185.42 287.349 1186 286.777C1186.57 286.205 1187.14 285.633 1187.71 285.633C1188.28 285.061 1189.43 285.633 1190 285.633C1190.57 286.205 1191.14 286.777 1191.72 287.349C1192.29 287.92 1191.72 289.064 1191.14 290.208Z" fill="#999999" stroke="#999999" stroke-width="0.068042" stroke-miterlimit="10"/>
<path opacity="0.25" d="M917.719 338.242C917.147 338.813 916.575 339.385 916.003 339.385C914.287 339.957 912.571 338.813 911.999 337.098C911.427 335.954 911.999 334.811 912.571 334.239C913.143 333.667 913.715 333.095 914.287 333.095C916.003 332.523 917.719 333.667 918.291 335.382C918.291 336.526 918.291 337.098 917.719 338.242Z" fill="#999999" stroke="#999999" stroke-width="0.068042" stroke-miterlimit="10"/>
<path opacity="0.25" d="M505.84 424.588C505.268 425.16 504.696 425.732 504.124 425.732C502.408 426.304 500.692 425.16 500.12 423.444C499.548 422.301 500.12 421.157 500.692 420.585C501.264 420.013 501.836 419.442 502.408 419.442C502.98 418.87 504.124 419.442 504.696 419.442C505.268 420.013 505.84 420.585 506.412 421.157C506.412 422.301 506.412 423.444 505.84 424.588Z" fill="#999999" stroke="#999999" stroke-width="0.068042" stroke-miterlimit="10"/>
<path opacity="0.25" d="M500.122 310.793C499.549 311.365 498.977 311.936 498.405 311.936C497.833 312.508 496.689 311.936 496.117 311.936C495.545 311.365 494.973 310.793 494.401 310.221C493.829 309.077 494.401 307.934 494.973 307.362C495.545 306.79 496.117 306.218 496.689 306.218C498.405 305.646 500.122 306.79 500.694 308.505C501.266 309.077 501.266 310.221 500.122 310.793Z" fill="#999999" stroke="#999999" stroke-width="0.068042" stroke-miterlimit="10"/>
<path opacity="0.25" d="M370.829 266.762C370.256 267.334 369.684 267.906 369.112 267.906C368.54 268.478 367.396 267.906 366.824 267.906C366.252 267.334 365.68 266.762 365.108 266.191C364.536 265.047 365.108 263.903 365.68 263.331C366.252 262.76 366.824 262.188 367.396 262.188C367.968 261.616 369.112 262.188 369.684 262.188C370.256 262.76 370.829 263.331 371.401 263.903C371.401 265.047 371.401 266.191 370.829 266.762Z" fill="#999999" stroke="#999999" stroke-width="0.068042" stroke-miterlimit="10"/>
<path opacity="0.25" d="M242.696 406.861C242.124 407.432 241.552 408.004 240.98 408.004C239.263 408.576 237.547 407.432 236.975 405.717C236.403 404.573 236.975 403.43 237.547 402.858C238.119 402.286 238.691 401.714 239.263 401.714C239.835 401.142 240.98 401.714 241.552 401.714C242.124 402.286 242.696 402.858 243.268 403.43C243.268 404.573 243.268 405.717 242.696 406.861Z" fill="#999999" stroke="#999999" stroke-width="0.068042" stroke-miterlimit="10"/>
<path opacity="0.25" d="M1274.11 353.681C1274.11 354.253 1273.53 354.253 1272.96 354.253C1272.39 354.253 1271.82 354.253 1271.25 354.253C1270.67 354.253 1270.1 353.681 1270.1 353.109C1270.1 352.537 1270.1 351.966 1270.1 351.394C1270.1 350.822 1270.67 350.822 1271.25 350.822C1272.39 350.25 1273.53 350.822 1274.11 351.966C1274.11 352.537 1274.11 353.109 1274.11 353.681Z" fill="#999999" stroke="#999999" stroke-width="0.068042" stroke-miterlimit="10"/>
<path opacity="0.25" d="M1079.6 365.118C1079.03 366.261 1077.89 366.833 1076.74 367.405C1075.6 367.977 1073.88 367.977 1072.74 367.405C1071.6 366.833 1070.45 365.69 1069.88 364.546C1069.31 362.83 1069.31 361.115 1070.45 359.399C1071.02 358.256 1072.17 357.684 1073.31 357.112C1076.17 355.968 1079.03 357.684 1080.18 360.543C1081.32 362.259 1080.75 363.974 1079.6 365.118Z" fill="#999999" stroke="#999999" stroke-width="0.068042" stroke-miterlimit="10"/>
<path opacity="0.25" d="M875.957 416.011C875.385 416.583 874.813 417.155 874.241 417.155C872.525 417.727 870.809 416.583 870.237 414.867C869.665 413.724 870.237 412.58 870.809 412.008C871.381 411.436 871.953 410.865 872.525 410.865C874.241 410.293 875.957 411.436 876.529 413.152C876.529 413.724 876.529 414.867 875.957 416.011Z" fill="#999999" stroke="#999999" stroke-width="0.068042" stroke-miterlimit="10"/>
<path opacity="0.25" d="M766.116 374.266C765.544 375.41 764.4 375.982 763.256 376.553C762.112 377.125 760.396 377.125 759.252 376.553C758.108 375.982 756.963 374.838 756.391 373.122C755.819 371.407 755.819 369.691 756.963 367.976C757.535 366.832 758.68 366.26 759.824 365.689C760.968 365.117 762.684 365.117 763.828 365.689C764.972 366.26 766.116 367.404 766.688 369.12C767.832 370.835 767.26 372.551 766.116 374.266Z" fill="#999999" stroke="#999999" stroke-width="0.068042" stroke-miterlimit="10"/>
<path opacity="0.25" d="M1147.1 417.155C1146.53 417.726 1145.96 418.298 1145.39 418.298C1143.67 418.87 1141.95 417.726 1141.38 416.011C1140.81 414.867 1141.38 413.724 1141.95 413.152C1142.53 412.58 1143.1 412.008 1143.67 412.008C1144.24 411.436 1145.39 412.008 1145.96 412.008C1146.53 412.58 1147.1 413.152 1147.67 413.724C1148.25 415.439 1147.67 416.583 1147.1 417.155Z" fill="#999999" stroke="#999999" stroke-width="0.068042" stroke-miterlimit="10"/>
</g>
</g>
<g opacity="0.5">
<path opacity="0.5" d="M330.79 247.318L292.463 333.665L247.271 311.363L247.843 311.935L282.738 357.11L228.965 476.05V476.622H229.537L357.677 592.132L357.105 592.704H357.677H462.362L430.327 646.456L539.589 641.31L557.323 670.473L623.109 652.174L710.061 689.343L745.528 763.11L855.934 743.096H855.362L748.961 705.927L683.747 635.02L509.843 592.704L488.677 546.958L508.698 513.791L506.982 426.301L561.327 353.679L645.419 375.408L693.471 357.11L787.288 418.867L859.367 408.003L867.947 485.772L998.375 526.943L1191.73 472.62L1247.79 633.304L1313.58 651.031L1351.33 752.245V751.673L1390.8 697.921L1496.06 826.011L1583.59 824.296L1649.37 950.67V950.098L1644.79 781.98L1580.15 744.239L1577.29 691.631L1612.76 608.143L1699.71 570.974L1616.76 516.079L1611.62 476.622L1487.48 430.304L1513.22 290.777L1412.54 241.028L1370.78 279.341L1357.62 246.746L1279.25 363.972L1151.69 224.445V223.873L1151.11 224.445L1021.26 268.476L1016.11 381.698L901.699 399.425L848.498 295.352V294.78L812.458 367.974L757.541 330.234L694.044 354.822L604.231 295.924L527.576 343.386L444.057 322.228L443.485 321.656V322.228L374.266 375.408L330.79 247.318ZM812.458 367.974L788.432 416.58L758.113 330.805L812.458 367.974ZM848.498 295.924L859.939 400.569L812.458 367.974L848.498 295.924ZM901.699 399.425L866.231 405.143L859.939 401.141L848.498 296.496L901.699 399.425ZM865.659 405.143L860.511 405.715L859.939 401.141L865.659 405.143ZM1522.38 764.253L1583.59 822.008L1496.63 823.724L1522.38 764.253ZM1522.95 764.253L1535.53 747.67L1583.59 821.436L1522.95 764.253ZM1009.82 440.597L1016.68 382.27L1047 412.577L1036.13 439.453L1009.82 440.597ZM1035.56 439.453L1000.09 524.656L1009.82 441.169L1035.56 439.453ZM1374.21 581.267L1437.71 499.496L1464.6 596.135L1374.21 581.267ZM1437.71 499.496L1538.39 552.676L1464.6 596.707L1437.71 499.496ZM1487.48 430.304L1437.71 498.352L1424.55 448.031L1487.48 430.304ZM1424.55 448.031L1437.71 498.924L1389.66 458.324L1424.55 448.031ZM1389.66 457.752L1325.02 402.856L1399.38 350.248L1424.55 447.459L1389.66 457.752ZM1437.14 498.924L1337.03 472.62L1389.09 457.752L1437.14 498.924ZM1337.03 472.048L1306.71 415.436L1324.45 402.856L1389.09 457.752L1337.03 472.048ZM1306.71 415.436L1279.83 365.115L1324.45 402.856L1306.71 415.436ZM1306.71 415.436L1250.65 454.893L1279.83 364.543L1306.71 415.436ZM1250.08 454.893L1204.31 390.848L1279.83 364.543L1250.08 454.893ZM1279.83 364.543L1398.81 350.248L1325.02 402.284L1279.83 364.543ZM1399.38 350.248L1487.48 430.304L1424.55 448.031L1399.38 350.248ZM1487.48 430.304L1511.51 488.631L1437.71 498.352L1487.48 430.304ZM1512.08 489.203L1538.39 552.676L1438.28 499.496L1512.08 489.203ZM1512.08 489.203L1564.14 482.341L1538.39 552.676L1512.08 489.203ZM1564.71 482.341L1589.88 498.924L1538.96 552.676L1564.71 482.341ZM1538.39 552.676L1524.66 619.008L1465.17 596.135L1538.39 552.676ZM1524.09 619.58L1518.94 643.025L1464.6 597.279L1524.09 619.58ZM1518.94 643.025L1506.36 703.067L1464.6 596.707L1518.94 643.025ZM1374.21 581.267L1337.03 472.62L1437.71 498.924V499.496L1374.21 581.267ZM1336.46 472.048L1250.08 454.893L1306.14 415.436L1336.46 472.048ZM1250.08 454.893L1182 438.31L1177.43 399.425L1203.74 390.276L1250.08 454.893ZM1177.43 399.997L1171.14 346.245L1203.17 390.848L1177.43 399.997ZM1182 438.31L1153.97 408.003L1178 399.425L1182 438.31ZM1153.4 408.003L1102.49 353.679L1109.35 335.38L1171.14 345.101L1177.43 399.425L1153.4 408.003ZM1016.68 382.27L1080.75 331.377L1047 412.577L1016.68 382.27ZM1080.18 331.377L1071.03 436.594L1047 412.577L1080.18 331.377ZM1102.49 353.679L1080.75 330.805L1109.35 335.38L1102.49 353.679ZM1153.4 408.574L1071.6 437.166L1103.06 354.822L1153.4 408.574ZM1071.03 436.022L1080.18 330.805L1101.92 353.679L1071.03 436.022ZM1071.03 437.166L1035.56 439.453L1046.43 413.149L1071.03 437.166ZM1009.24 440.597L926.297 445.743L1016.11 382.27L1009.24 440.597ZM1017.25 381.127L1151.11 225.017L1109.35 335.38L1080.75 330.805L1017.25 381.127ZM1151.69 225.017L1171.71 345.101L1109.93 335.38L1151.69 225.017ZM1151.69 225.017L1279.25 364.543L1203.74 390.848L1171.14 345.673L1151.69 225.017ZM1279.83 363.972L1370.78 279.912L1398.81 349.676L1279.83 363.972ZM1399.38 350.248L1446.29 325.659L1487.48 429.732L1399.38 350.248ZM1487.48 430.304L1564.14 481.769L1512.08 488.631L1487.48 430.304ZM1564.71 481.769L1610.47 476.622L1589.31 498.352L1564.71 481.769ZM1610.47 477.194L1600.17 505.786L1589.31 498.924L1610.47 477.194ZM1600.75 505.786L1580.15 565.256L1538.96 552.676L1590.45 498.924L1600.75 505.786ZM1579.58 565.828L1556.7 631.589L1524.09 619.58L1537.82 553.248L1579.58 565.828ZM1580.15 565.828L1624.2 579.552L1556.7 631.589L1580.15 565.828ZM1624.2 579.552L1612.19 607.572L1557.27 631.017L1624.2 579.552ZM1537.82 658.465L1519.52 643.025L1524.66 619.58L1556.7 631.589L1537.82 658.465ZM1537.82 658.465L1506.93 702.496L1519.52 642.453L1537.82 658.465ZM1534.96 747.098L1522.38 763.681L1506.93 704.211L1534.96 747.098ZM1506.93 703.639L1549.83 727.656L1534.96 747.098L1506.93 703.639ZM1522.38 763.681L1430.28 681.91L1506.36 703.639L1522.38 763.681ZM1429.7 681.338L1413.11 666.47L1464.03 596.707L1506.36 703.067L1429.7 681.338ZM1413.11 666.47L1390.23 645.884L1464.03 597.279L1413.11 666.47ZM1429.13 681.338L1406.82 675.048L1412.54 667.042L1429.13 681.338ZM1406.82 675.048L1364.49 663.039L1389.66 646.456L1412.54 667.042L1406.82 675.048ZM1406.82 675.048L1391.38 696.205L1364.49 663.039L1406.82 675.048ZM1368.49 627.014L1389.66 645.884L1364.49 662.467L1368.49 627.014ZM1364.49 662.467L1276.39 544.67L1368.49 627.014L1364.49 662.467ZM1368.49 626.442L1373.64 581.267L1463.45 596.135L1389.66 645.312L1368.49 626.442ZM1373.64 581.267L1250.65 455.465L1337.03 472.62L1373.64 581.267ZM1249.51 455.465L1192.87 471.476L1181.43 439.453L1249.51 455.465ZM1181.43 438.881L1071.6 437.166L1153.4 408.574L1181.43 438.881ZM1000.09 524.656L1035.56 439.453L1071.03 437.166L1000.09 524.656ZM999.52 525.228L926.297 446.315L1009.24 441.169L999.52 525.228ZM901.699 399.425L925.153 445.743L866.231 405.143L901.699 399.425ZM902.271 399.425L1016.11 381.698L926.297 445.743L902.271 399.425ZM1021.83 268.476L1151.11 225.017L1016.68 381.698L1021.83 268.476ZM1370.78 279.912L1279.83 363.4L1357.62 246.746L1370.78 279.912ZM1413.11 241.6L1446.29 325.659L1399.38 350.248L1371.35 280.484L1413.11 241.6ZM1413.11 241.6L1513.22 290.777L1446.29 325.659L1413.11 241.6ZM1487.48 429.732L1446.29 325.659L1513.22 290.777L1487.48 429.732ZM1488.62 430.304L1611.04 476.05L1564.71 481.197L1488.62 430.304ZM1616.19 516.079L1600.75 505.786L1611.04 476.622L1616.19 516.079ZM1624.2 578.98L1580.15 565.256L1600.75 505.786L1616.19 516.079L1624.2 578.98ZM1616.19 516.079L1698.57 570.403L1624.2 578.98L1616.19 516.079ZM1612.76 607.572L1624.77 579.552L1698.57 570.974L1612.76 607.572ZM1577.29 691.059L1538.39 658.465L1557.27 631.589L1612.76 608.143L1577.29 691.059ZM1549.83 727.084L1506.36 703.067L1537.82 658.465L1576.72 691.059L1549.83 727.084ZM1579.58 743.667L1549.83 727.084L1576.72 691.631L1579.58 743.667ZM1584.16 822.008L1535.53 747.67L1550.41 728.228L1580.15 744.811L1584.16 822.008ZM1584.16 822.008L1580.15 744.239L1644.79 780.265L1584.16 822.008ZM1649.37 947.811L1584.73 822.58L1584.16 822.008L1644.79 780.265L1649.37 947.811ZM1391.95 696.205L1407.39 675.048L1430.28 681.338L1522.95 764.253L1497.21 823.724L1391.95 696.205ZM1352.48 749.958L1364.49 663.039L1391.38 696.205L1352.48 749.958ZM1314.72 649.315L1363.92 662.467L1351.9 749.958L1314.72 649.315ZM1314.72 649.315L1275.82 544.67L1363.92 662.467L1314.72 649.315ZM1249.51 631.589L1250.65 455.465L1374.21 581.839L1369.07 626.442L1275.82 543.527V544.098L1314.72 649.315L1249.51 631.589ZM1193.45 471.476L1250.08 455.465L1248.93 631.017L1193.45 471.476ZM1192.87 470.904L999.52 525.228L1071.03 437.166L1182 438.881L1192.87 470.904ZM860.511 405.715L866.231 405.143L925.725 446.315L998.948 525.228L868.52 484.056L860.511 405.715ZM860.511 405.715L788.432 416.58L812.458 367.974L859.939 400.569L860.511 405.715ZM694.616 354.822L757.541 330.234L787.86 416.58L694.616 354.822ZM323.926 410.862L350.24 445.172L230.109 476.05L323.926 410.862ZM358.249 591.56L425.751 513.791L455.498 540.667L358.249 591.56ZM425.751 513.791L457.786 476.622L481.24 527.515L455.498 541.239L425.751 513.791ZM374.266 375.408L350.24 444.6L345.664 395.422L374.266 375.408ZM457.786 476.05L458.358 431.448L507.554 425.158L457.786 476.05ZM458.358 430.876V406.287L506.982 424.586L458.358 430.876ZM458.358 430.876L350.812 444.6L374.838 374.836L458.358 406.287V430.876ZM444.057 322.228L458.93 385.701V406.859L375.41 375.408L444.057 322.228ZM444.057 322.228L476.091 374.265L458.358 385.129L444.057 322.228ZM476.664 374.265L507.554 424.014L458.93 385.129L476.664 374.265ZM506.982 424.586L458.358 406.287V385.701L506.982 424.586ZM507.554 425.158L509.271 512.076L457.786 476.05L507.554 425.158ZM509.271 512.648L481.24 527.515L457.786 477.194L509.271 512.648ZM425.751 513.219L350.812 444.6L458.358 430.876L457.786 475.479L425.751 513.219ZM323.926 410.29L345.664 395.422L350.24 444.6L323.926 410.29ZM323.926 410.29L282.738 357.11L293.035 334.236L342.231 358.825L345.664 395.422L323.926 410.29ZM341.659 358.825L374.266 374.836L345.092 394.851L341.659 358.825ZM341.659 358.825L330.79 248.462L374.266 374.836L341.659 358.825ZM527.004 343.386L476.664 374.265L444.629 322.228L527.004 343.386ZM561.899 351.963L527.576 343.386L603.659 296.496L561.899 351.963ZM646.563 373.121L604.803 295.924L694.044 354.822L646.563 373.121ZM562.471 351.963L604.231 295.924L645.991 373.121L562.471 351.963ZM507.554 424.586L476.664 374.265L527.576 342.814L562.471 351.963L507.554 424.586ZM489.821 545.814L481.24 527.515L509.271 512.648L489.821 545.814ZM479.524 562.969L455.498 541.239L481.24 528.087L489.821 546.386L479.524 562.969ZM489.821 545.814L510.415 590.988L479.524 562.969L489.821 545.814ZM509.843 590.988L462.934 591.56L479.524 562.969L509.843 590.988ZM746.672 761.394L750.677 704.783L856.506 741.952L746.672 761.394ZM711.205 688.2L750.105 704.783L746.1 761.394L711.205 688.2ZM710.633 688.2L684.891 634.448L749.533 704.783L710.633 688.2ZM623.681 651.031L684.319 633.876L710.061 687.628L623.681 651.031ZM623.681 651.031L592.218 637.879L511.559 592.132L684.319 634.448L623.681 651.031ZM623.109 651.031L557.895 669.329L591.646 637.879L623.109 651.031ZM540.161 640.166L591.646 637.879L557.895 669.329L540.161 640.166ZM540.161 640.166L510.987 592.132L591.646 637.879L540.161 640.166ZM539.589 640.166L430.899 645.312L510.415 591.56L539.589 640.166ZM462.934 591.56H510.415L430.899 645.312L462.934 591.56ZM462.362 591.56H358.249L455.498 540.667L479.524 562.969L462.362 591.56ZM357.677 591.56L350.24 445.172L425.179 513.791L357.677 591.56ZM357.677 591.56L229.537 476.05L350.24 444.6L357.677 591.56ZM282.166 357.11L323.354 410.29L229.537 476.05L282.166 357.11ZM291.891 334.236L282.166 356.538L247.271 311.935L291.891 334.236ZM330.79 247.89L341.659 358.253L292.463 333.665L330.79 247.89Z" fill="#F04E23" stroke="#F04E23" stroke-width="0.068042" stroke-miterlimit="10"/>
<g opacity="0.5">
<path opacity="0.5" d="M850.349 298.154C851.911 297.081 852.308 294.945 851.234 293.383C850.161 291.822 848.024 291.425 846.462 292.498C844.899 293.571 844.503 295.707 845.577 297.269C846.65 298.831 848.787 299.227 850.349 298.154Z" fill="#F04E23" stroke="#F04E23" stroke-width="0.068042" stroke-miterlimit="10"/>
<path opacity="0.5" d="M1415.11 244.3C1416.68 243.226 1417.07 241.091 1416 239.529C1414.93 237.967 1412.79 237.571 1411.23 238.644C1409.67 239.717 1409.27 241.853 1410.34 243.415C1411.42 244.976 1413.55 245.373 1415.11 244.3Z" fill="#F04E23" stroke="#F04E23" stroke-width="0.068042" stroke-miterlimit="10"/>
<path opacity="0.5" d="M1358.84 248.764C1359.89 248.049 1360.15 246.625 1359.44 245.583C1358.72 244.542 1357.3 244.278 1356.25 244.993C1355.21 245.708 1354.95 247.132 1355.66 248.174C1356.38 249.215 1357.8 249.479 1358.84 248.764Z" fill="#F04E23" stroke="#F04E23" stroke-width="0.068042" stroke-miterlimit="10"/>
<path opacity="0.5" d="M1401.26 352.94C1402.82 351.868 1403.22 349.732 1402.15 348.17C1401.07 346.607 1398.94 346.209 1397.37 347.28C1395.81 348.352 1395.41 350.488 1396.48 352.05C1397.56 353.613 1399.69 354.011 1401.26 352.94Z" fill="#F04E23" stroke="#F04E23" stroke-width="0.068042" stroke-miterlimit="10"/>
<path opacity="0.5" d="M1173.69 348.344C1175.26 347.271 1175.65 345.135 1174.58 343.574C1173.5 342.012 1171.37 341.616 1169.81 342.689C1168.24 343.763 1167.85 345.899 1168.92 347.46C1169.99 349.022 1172.13 349.418 1173.69 348.344Z" fill="#F04E23" stroke="#F04E23" stroke-width="0.068042" stroke-miterlimit="10"/>
<path opacity="0.5" d="M1081.93 332.599C1082.98 331.884 1083.24 330.46 1082.52 329.418C1081.81 328.377 1080.39 328.112 1079.34 328.827C1078.3 329.542 1078.04 330.966 1078.75 332.008C1079.47 333.049 1080.89 333.314 1081.93 332.599Z" fill="#F04E23" stroke="#F04E23" stroke-width="0.068042" stroke-miterlimit="10"/>
<path opacity="0.5" d="M327.924 249.606C328.496 250.178 329.068 250.75 329.64 250.75C330.212 251.321 331.356 250.75 331.928 250.75C332.5 250.178 333.072 249.606 333.644 249.034C334.216 247.89 333.644 246.747 333.072 246.175C332.5 245.603 331.928 245.031 331.356 245.031C330.784 245.031 329.64 245.031 329.068 245.031C328.496 245.603 327.924 246.175 327.352 246.747C327.352 247.319 327.352 248.462 327.924 249.606Z" fill="#F04E23" stroke="#F04E23" stroke-width="0.068042" stroke-miterlimit="10"/>
<path opacity="0.5" d="M456.067 387.419C456.639 387.991 457.211 388.562 457.783 388.562C458.355 389.134 459.499 388.562 460.071 388.562C460.643 387.991 461.215 387.419 461.787 386.847C462.359 385.703 461.787 384.56 461.215 383.988C460.643 383.416 460.071 382.844 459.499 382.844C457.783 382.272 456.067 383.416 455.495 385.131C454.923 385.131 455.495 386.275 456.067 387.419Z" fill="#F04E23" stroke="#F04E23" stroke-width="0.068042" stroke-miterlimit="10"/>
<path opacity="0.5" d="M601.369 297.64C601.941 298.212 602.513 298.784 603.085 298.784C604.801 299.355 606.517 298.212 607.089 296.496C607.661 295.353 607.089 294.209 606.517 293.637C605.945 293.065 605.373 292.493 604.801 292.493C603.085 291.922 601.369 293.065 600.797 294.781C600.797 295.924 600.797 297.068 601.369 297.64Z" fill="#F04E23" stroke="#F04E23" stroke-width="0.068042" stroke-miterlimit="10"/>
<path opacity="0.5" d="M785.568 418.869C786.14 419.441 786.712 420.013 787.284 420.013C787.856 420.584 789 420.013 789.572 420.013C790.144 419.441 790.717 418.869 791.289 418.297C791.861 417.153 791.289 416.01 790.716 415.438C790.144 414.866 789.572 414.294 789 414.294C788.428 413.722 787.284 414.294 786.712 414.294C786.14 414.866 785.568 415.438 784.996 416.01C784.996 417.153 784.996 417.725 785.568 418.869Z" fill="#F04E23" stroke="#F04E23" stroke-width="0.068042" stroke-miterlimit="10"/>
<path opacity="0.5" d="M1013.81 383.987C1014.38 384.558 1014.95 385.13 1015.52 385.13C1017.24 385.702 1018.96 384.558 1019.53 382.843C1020.1 381.699 1019.53 380.556 1018.96 379.984C1018.38 379.412 1017.81 378.84 1017.24 378.84C1016.67 378.268 1015.52 378.84 1014.95 378.84C1014.38 379.412 1013.81 379.984 1013.24 380.556C1012.66 381.699 1012.66 382.843 1013.81 383.987Z" fill="#F04E23" stroke="#F04E23" stroke-width="0.068042" stroke-miterlimit="10"/>
<path opacity="0.5" d="M1018.97 270.193C1019.54 270.765 1020.11 271.337 1020.68 271.337C1021.25 271.909 1022.4 271.337 1022.97 271.337C1023.54 270.765 1024.12 270.193 1024.69 269.621C1025.26 268.478 1024.69 267.334 1024.12 266.762C1023.54 266.19 1022.97 265.618 1022.4 265.618C1020.68 265.047 1018.97 266.19 1018.39 267.906C1018.39 268.478 1018.39 269.621 1018.97 270.193Z" fill="#F04E23" stroke="#F04E23" stroke-width="0.068042" stroke-miterlimit="10"/>
<path opacity="0.5" d="M1148.82 226.733C1149.39 227.305 1149.97 227.877 1150.54 227.877C1151.11 228.449 1152.25 227.877 1152.83 227.877C1153.4 227.305 1153.97 226.733 1154.54 226.161C1155.11 225.018 1154.54 223.874 1153.97 223.302C1153.4 222.73 1152.83 222.158 1152.25 222.158C1151.68 221.587 1150.54 222.158 1149.97 222.158C1149.39 222.73 1148.82 223.302 1148.25 223.874C1148.25 224.446 1148.25 225.589 1148.82 226.733Z" fill="#F04E23" stroke="#F04E23" stroke-width="0.068042" stroke-miterlimit="10"/>
<path opacity="0.5" d="M1276.97 366.259C1277.54 366.831 1278.11 367.403 1278.68 367.403C1280.4 367.975 1282.11 366.831 1282.69 365.115C1283.26 363.972 1282.69 362.828 1282.11 362.256C1281.54 361.684 1280.97 361.113 1280.4 361.113C1279.83 360.541 1278.68 361.113 1278.11 361.113C1277.54 361.684 1276.97 362.256 1276.39 362.828C1275.82 364.544 1276.39 365.687 1276.97 366.259Z" fill="#F04E23" stroke="#F04E23" stroke-width="0.068042" stroke-miterlimit="10"/>
<path opacity="0.5" d="M245.55 313.08C245.55 313.651 246.122 313.651 246.694 313.651C247.266 313.651 247.838 313.651 248.41 313.651C248.982 313.651 249.554 313.08 249.554 312.508C249.554 311.936 249.554 311.364 249.554 310.792C249.554 310.22 248.982 310.22 248.41 310.22C247.266 309.649 246.122 310.22 245.55 311.364C244.978 311.936 244.978 312.508 245.55 313.08Z" fill="#F04E23" stroke="#F04E23" stroke-width="0.068042" stroke-miterlimit="10"/>
<path opacity="0.5" d="M439.471 325.089C440.043 326.233 441.187 326.805 442.332 327.377C443.476 327.949 445.192 327.949 446.336 327.377C447.48 326.805 448.624 325.661 449.196 324.518C449.768 322.802 449.768 321.087 448.624 319.371C448.052 318.227 446.908 317.656 445.764 317.084C442.904 315.94 440.043 317.656 438.899 320.515C438.327 321.658 438.327 323.374 439.471 325.089Z" fill="#F04E23" stroke="#F04E23" stroke-width="0.068042" stroke-miterlimit="10"/>
<path opacity="0.5" d="M643.688 375.409C644.26 375.981 644.832 376.553 645.404 376.553C647.12 377.125 648.836 375.981 649.409 374.266C649.981 373.122 649.409 371.978 648.836 371.407C648.264 370.835 647.692 370.263 647.12 370.263C645.404 369.691 643.688 370.835 643.116 372.55C642.544 373.694 643.116 374.266 643.688 375.409Z" fill="#F04E23" stroke="#F04E23" stroke-width="0.068042" stroke-miterlimit="10"/>
<path opacity="0.5" d="M752.96 333.665C753.532 334.808 754.676 335.38 755.82 335.952C756.964 336.524 758.68 336.524 759.824 335.952C760.968 335.38 762.112 334.236 762.685 332.521C763.257 330.805 763.257 329.09 762.112 327.374C761.54 326.231 760.396 325.659 759.252 325.087C758.108 324.515 756.392 324.515 755.248 325.087C754.104 325.659 752.96 326.803 752.387 328.518C751.815 330.234 751.815 331.949 752.96 333.665Z" fill="#F04E23" stroke="#F04E23" stroke-width="0.068042" stroke-miterlimit="10"/>
<path opacity="0.5" d="M371.97 377.125C372.543 377.697 373.115 378.269 373.687 378.269C375.403 378.841 377.119 377.697 377.691 375.982C378.263 374.838 377.691 373.694 377.119 373.122C376.547 372.551 375.975 371.979 375.403 371.979C374.831 371.407 373.687 371.979 373.115 371.979C372.543 372.551 371.97 373.122 371.398 373.694C371.398 374.838 371.398 375.982 371.97 377.125Z" fill="#F04E23" stroke="#F04E23" stroke-width="0.068042" stroke-miterlimit="10"/>
</g>
</g>
</g>
<defs>
<clipPath id="clip0">
<rect width="1965" height="1013" fill="white" transform="translate(-263)"/>
</clipPath>
</defs>
</svg>
