<svg width="128" height="130" viewBox="0 0 128 130" fill="none" xmlns="http://www.w3.org/2000/svg">
<path d="M35.001 9H89.001C90.1055 9 91.001 9.89543 91.001 11V127C91.001 128.105 90.1055 129 89.001 129H35.001C33.8964 129 33.001 128.105 33.001 127V54.8762V11C33.001 9.89543 33.8964 9 35.001 9Z" fill="white" stroke="black" stroke-width="2"/>
<path d="M36.001 11.5H88.001C88.2771 11.5 88.501 11.7239 88.501 12V122C88.501 122.276 88.2771 122.5 88.001 122.5H36.001C35.7248 122.5 35.501 122.276 35.501 122V56.3075V12C35.501 11.7239 35.7248 11.5 36.001 11.5Z" fill="#F5F5F5" stroke="#B8B8B8"/>
<path d="M36.001 12H88.001V36.5L36.001 112V12Z" fill="white"/>
<path d="M35.4531 91.2451C49.5104 98.3303 61.3377 109.193 69.6014 122.5" stroke="#B8B8B8"/>
<path d="M88.001 11.5L35.4355 47.5925M88.4493 52.3088L61.4121 70.5H35.4121M60.4341 110.51L76.173 99.7552" stroke="#B8B8B8"/>
<path d="M88.4564 45.4673L71.9119 21.6125L64.8828 11.4775" stroke="#B8B8B8"/>
<path d="M43.4121 44.5L70.9121 84" stroke="black" stroke-width="2"/>
<path d="M36.001 11.5H88.001C88.2771 11.5 88.501 11.7239 88.501 12V122C88.501 122.276 88.2771 122.5 88.001 122.5H36.001C35.7248 122.5 35.501 122.276 35.501 122V56.3075V12C35.501 11.7239 35.7248 11.5 36.001 11.5Z" stroke="#B8B8B8"/>
<rect x="31.001" y="26" width="1" height="11" fill="black"/>
<rect x="31.001" y="38" width="1" height="11" fill="black"/>
<mask id="path-11-outside-1" maskUnits="userSpaceOnUse" x="24.9121" y="0" width="34" height="34" fill="black">
<rect fill="white" x="24.9121" width="34" height="34"/>
<path d="M56.9121 17C56.9121 25.2843 50.1964 32 41.9121 32C33.6278 32 26.9121 25.2843 26.9121 17C26.9121 8.71573 33.6278 2 41.9121 2C50.1964 2 56.9121 8.71573 56.9121 17Z"/>
</mask>
<path d="M56.9121 17C56.9121 25.2843 50.1964 32 41.9121 32C33.6278 32 26.9121 25.2843 26.9121 17C26.9121 8.71573 33.6278 2 41.9121 2C50.1964 2 56.9121 8.71573 56.9121 17Z" fill="#FF3333"/>
<path d="M54.9121 17C54.9121 24.1797 49.0918 30 41.9121 30V34C51.301 34 58.9121 26.3888 58.9121 17H54.9121ZM41.9121 30C34.7324 30 28.9121 24.1797 28.9121 17H24.9121C24.9121 26.3888 32.5233 34 41.9121 34V30ZM28.9121 17C28.9121 9.8203 34.7324 4 41.9121 4V0C32.5233 0 24.9121 7.61116 24.9121 17H28.9121ZM41.9121 4C49.0918 4 54.9121 9.8203 54.9121 17H58.9121C58.9121 7.61116 51.301 0 41.9121 0V4Z" fill="white" mask="url(#path-11-outside-1)"/>
<circle r="4" transform="matrix(-1 0 0 1 42.001 17)" fill="white"/>
<path d="M40.9385 28.5H42.9385V39.5H40.9385V28.5Z" fill="#FF3333"/>
<circle r="4" transform="matrix(-1 0 0 1 41.9121 43)" fill="black" stroke="white" stroke-width="2"/>
<path d="M94.7717 101.941L79.16 78.7959C78.4745 77.7796 77.3079 77.1952 76.0835 77.2547L74.955 77.3095C73.2048 77.3945 71.5114 77.9575 70.0588 78.9374L67.3972 80.7326C65.9446 81.7124 64.7882 83.0716 64.0537 84.6625L63.5802 85.6882C63.0663 86.8013 63.1712 88.1018 63.8567 89.1182L79.4683 112.263C79.9586 112.99 80.6715 113.539 81.4998 113.826C82.2433 114.084 83.0458 114.12 83.8093 113.929L84.0698 113.864L85.2102 113.579C85.9452 113.396 86.6425 113.085 87.2706 112.662L92.2181 109.324C92.8462 108.901 93.3954 108.371 93.8408 107.758L94.532 106.807L94.6899 106.59C95.1526 105.953 95.42 105.196 95.4594 104.41C95.5033 103.534 95.262 102.668 94.7717 101.941Z" fill="white" stroke="white" stroke-width="3"/>
<path d="M65.1003 88.2794C64.708 87.6979 64.6481 86.9538 64.9421 86.317V86.317L65.4156 85.2912V85.2912C66.0352 83.9492 67.0106 82.8027 68.236 81.9762L71.2601 79.9364C72.3722 79.1863 73.6864 78.7926 75.0278 78.8077V78.8077L76.1562 78.7529V78.7529C76.8568 78.7189 77.5243 79.0532 77.9165 79.6347L93.5281 102.78C93.8369 103.238 93.9889 103.783 93.9613 104.335V104.335C93.9364 104.83 93.768 105.307 93.4766 105.708L93.3187 105.925L92.6276 106.876C92.2849 107.347 91.8625 107.755 91.3793 108.081L86.4318 111.418C85.9486 111.744 85.4123 111.983 84.8468 112.124L83.7065 112.409L83.446 112.474C82.9651 112.594 82.4597 112.571 81.9914 112.409V112.409C81.4697 112.228 81.0207 111.882 80.7119 111.425L65.1003 88.2794Z" fill="white"/>
<path d="M77.1808 96.8481L81.6812 93.8487L82.681 95.3488L78.1806 98.3483L77.1808 96.8481Z" fill="#E1E1E1"/>
<path d="M73.2161 80.517L77.7664 79.0458L77.7746 78.1363L74.1372 78.1034L70.9465 78.9842L66.3711 82.1255L64.069 85.2875L64.0402 88.4702L79.7396 112.257L82.9099 113.65L86.0221 111.55L84.2063 111.715C83.4265 111.786 82.6773 111.395 82.289 110.715L81.4386 109.226L80.725 105.485L79.6066 103.827L73.7351 95.1223L69.5607 92.51L68.1568 85.7794C67.8929 84.6816 68.3332 83.5347 69.2641 82.8955L71.4952 81.3636C72.0249 80.9999 72.6046 80.7147 73.2161 80.517Z" fill="#E1E1E1"/>
<path d="M94.354 102.443L78.6466 79.1561C78.1367 78.4002 77.3475 77.8778 76.4525 77.7039C76.0818 77.6318 75.7017 77.6213 75.3276 77.6728L75.0917 77.7053C73.1806 77.9684 71.3553 78.6662 69.7561 79.7449L68.4293 80.6398C66.83 81.7185 65.4993 83.1495 64.5395 84.8229L64.421 85.0295C64.2331 85.357 64.1004 85.7133 64.0284 86.084C63.8544 86.979 64.0431 87.9065 64.5529 88.6624L80.2603 111.95C80.7312 112.648 81.46 113.13 82.2866 113.291C82.7704 113.385 83.2694 113.365 83.7442 113.233L85.5143 112.74C86.1356 112.567 86.7249 112.294 87.2595 111.934L91.7174 108.927C92.2521 108.566 92.7251 108.122 93.1182 107.611L94.2385 106.154C94.539 105.763 94.7444 105.308 94.8384 104.824C94.9991 103.998 94.8248 103.141 94.354 102.443Z" stroke="black" stroke-width="2"/>
<path d="M80.1856 108.261L71.5181 95.4114L74.7188 97.4742L78.6331 103.277L80.1856 108.261Z" fill="black"/>
<path d="M90.9629 100.992L82.2954 88.1418L83.009 91.8823L86.9234 97.6855L90.9629 100.992Z" fill="black"/>
<path d="M73.7353 95.1225L69.5608 92.5102C69.5608 92.5102 72.7605 89.7489 74.67 88.4609C76.5794 87.173 80.3383 85.2407 80.3383 85.2407L81.1966 90.0898L73.7353 95.1225Z" fill="black"/>
<path d="M81.4736 109.277L80.7252 105.485C83.5506 104.374 86.0977 102.656 88.1865 100.453L91.4221 102.567L90.408 103.509C88.1313 105.623 85.54 107.371 82.7266 108.69L81.4736 109.277Z" fill="black"/>
</svg>
